<svg xmlns="http://www.w3.org/2000/svg" width="37" height="28" viewBox="0 0 37 28" fill="none">
  <g clipPath="url(#clip0_411_4187)">
    <path d="M0 18.5H37V27.75H0V18.5Z" fill="black"/>
    <path d="M0 9.25H37V18.5H0V9.25Z" fill="white"/>
    <path d="M0 0H37V9.25H0V0Z" fill="#CE1126"/>
    <path d="M18.537 13.986L21.7052 16.9275L21.4785 11.5856C21.4462 10.7763 20.7432 10.9613 20.2298 11.2526C19.7164 11.5856 19.1198 11.5856 18.5 11.3683C17.8757 11.5856 17.2837 11.5856 16.7703 11.2526C16.2615 10.9613 15.5539 10.7763 15.5215 11.5856L15.2949 16.9275L18.537 13.986Z" fill="white" stroke="#C09300" stroke-width="0.13" strokeLinejoin="round"/>
    <path d="M15.8869 11.4006L15.6649 16.5945L15.2949 16.9275L15.5215 11.5856C15.6308 11.5018 15.7547 11.4391 15.8869 11.4006ZM16.3309 11.7706L16.1459 16.1181L15.7759 16.4974L15.9979 11.4793C16.0719 11.5533 16.2893 11.7336 16.3309 11.7706ZM16.7333 12.1036L16.5899 15.7296L16.2893 16.021L16.4743 11.8863C16.5483 11.9556 16.6963 12.062 16.7333 12.1036ZM17.1727 12.2886L17.0293 15.3781L16.7379 15.614L16.8813 12.1776C16.9553 12.21 17.0987 12.2886 17.1727 12.2886ZM17.5797 12.2886L17.4733 14.8648L17.1727 15.1561L17.2883 12.321C17.3577 12.321 17.5473 12.321 17.5797 12.2886Z" fill="#C09300"/>
    <path d="M21.1131 11.4006L21.3351 16.5945L21.7051 16.9275L21.4785 11.5856C21.3692 11.5018 21.2453 11.4391 21.1131 11.4006ZM20.6691 11.7706L20.8541 16.1181L21.2241 16.4974L21.0021 11.4793C20.9281 11.5533 20.7107 11.7336 20.6691 11.7706ZM20.2667 12.1036L20.4101 15.7296L20.7107 16.021L20.5257 11.8863C20.4517 11.9556 20.3037 12.062 20.2667 12.1036ZM19.8273 12.2886L19.9707 15.3781L20.2621 15.614L20.1187 12.1776C20.0447 12.21 19.9013 12.2886 19.8273 12.2886ZM19.4203 12.2886L19.5267 14.8648L19.8273 15.1561L19.7117 12.321C19.6423 12.321 19.4527 12.321 19.4203 12.2886Z" fill="#C09300"/>
    <path d="M18.648 14.5688L19.092 16.5945L18.944 16.7425L18.7913 16.6269L18.5416 14.8231L18.648 16.6269L18.5 16.8119L18.3566 16.6269L18.463 14.8231L18.2086 16.6269L18.056 16.7425L17.908 16.5945L18.352 14.5734H18.648V14.5688Z" fill="#C09300" stroke="#C09300" stroke-width="0.11"/>
    <path d="M17.5057 13.6808L16.6223 16.8119L17.8387 16.9969L18.3521 14.6428L17.5057 13.6808Z" fill="white" stroke="#C09300" stroke-width="0.12" strokeLinejoin="round"/>
    <path d="M17.2144 14.7538L17.3207 15.0081L17.8942 14.4624" stroke="#C09300" stroke-width="0.13" strokeLinejoin="round"/>
    <path d="M17.612 14.1063L17.7323 15.2301L18.0977 14.7491M17.9497 14.9341L18.1485 15.6279M18.2272 15.3735L17.8248 15.984M17.9497 16.5945L17.8202 15.984M17.8202 15.984L17.7092 15.3643L17.4363 15.7296L17.3207 15.3088L16.9414 15.6973L17.131 16.4003L17.3993 15.9655L17.5427 16.4095L17.8202 15.984Z" stroke="#C09300" stroke-width="0.13" strokeLinejoin="round"/>
    <path d="M16.8813 16.7425L17.1265 16.3956L17.2837 16.9275L17.5057 16.5575L17.6491 17.0015" stroke="#C09300" stroke-width="0.13" strokeLinejoin="round"/>
    <path d="M19.4943 13.6808L20.3777 16.8119L19.1613 16.9969L18.6479 14.6428L19.4943 13.6808Z" fill="white" stroke="#C09300" stroke-width="0.12" strokeLinejoin="round"/>
    <path d="M19.7856 14.7538L19.6793 15.0081L19.1058 14.4624" stroke="#C09300" stroke-width="0.13" strokeLinejoin="round"/>
    <path d="M19.388 14.1063L19.2677 15.2301L18.9023 14.7491M19.0503 14.9341L18.8515 15.6279M18.7728 15.3735L19.1752 15.984M19.0503 16.5945L19.1798 15.984M19.1798 15.984L19.2908 15.3643L19.5637 15.7296L19.6793 15.3088L20.0586 15.6973L19.869 16.4003L19.6007 15.9655L19.4573 16.4095L19.1798 15.984Z" stroke="#C09300" stroke-width="0.13" strokeLinejoin="round"/>
    <path d="M20.1187 16.7425L19.8735 16.3956L19.7163 16.9275L19.4943 16.5575L19.3509 17.0015" stroke="#C09300" stroke-width="0.13" strokeLinejoin="round"/>
    <path d="M18.5 18.2132C19.425 18.2132 20.3038 18.1393 20.8218 17.9959C21.0392 17.9543 21.0392 17.8433 21.0392 17.6953C21.2612 17.6213 21.1502 17.3622 21.3028 17.3622C21.1455 17.4085 21.1178 17.1079 20.9328 17.1449C20.9328 16.8859 20.6692 16.8535 20.4518 16.9275C20.0124 17.0709 19.2354 17.1079 18.5 17.1079C17.76 17.0709 16.9923 17.0709 16.5483 16.9229C16.3309 16.8535 16.0719 16.8859 16.0719 17.1449C15.8869 17.1079 15.8545 17.4039 15.7019 17.3622C15.8545 17.3622 15.7389 17.6259 15.9609 17.6953C15.9609 17.8433 15.9609 17.9543 16.1829 17.9959C16.6917 18.1393 17.5797 18.2132 18.5 18.2132Z" fill="white" stroke="#C09300" stroke-width="0.24" strokeLinecap="round" strokeLinejoin="round"/>
    <path d="M17.2466 16.8119C17.5426 16.8535 17.8756 16.8859 18.1346 16.8535C18.2826 16.8535 18.3889 17.1079 18.0929 17.1449C17.8386 17.1773 17.4316 17.1449 17.2142 17.1079C16.9281 17.0578 16.6442 16.9961 16.3632 16.9229C16.1042 16.8119 16.2892 16.5991 16.4372 16.6269C16.7012 16.7115 16.972 16.7734 17.2466 16.8119ZM19.7533 16.8119C19.4573 16.8535 19.1243 16.8859 18.8746 16.8535C18.7173 16.8535 18.6109 17.1079 18.9069 17.1449C19.1659 17.1773 19.5683 17.1449 19.7857 17.1079C19.9707 17.0709 20.3777 17.0015 20.6367 16.9229C20.8957 16.8119 20.7107 16.5991 20.5627 16.6269C20.2987 16.7115 20.0279 16.7734 19.7533 16.8119Z" fill="white" stroke="#C09300" stroke-width="0.13" strokeLinecap="round" strokeLinejoin="round"/>
    <path d="M16.3262 16.6685C16.1042 16.6269 16.0025 16.8859 16.0718 17.0339C16.1042 16.9599 16.2568 16.9599 16.2892 16.8859C16.3308 16.7749 16.2568 16.7749 16.3308 16.6685H16.3262ZM17.2142 17.3484C17.2142 17.2004 17.3576 17.2189 17.3576 17.0709C17.3576 17.0015 17.3206 16.8859 17.2466 16.8859C17.208 16.8881 17.1717 16.9044 17.1444 16.9317C17.1171 16.959 17.1008 16.9953 17.0986 17.0339C17.0662 17.1773 17.2142 17.2004 17.2142 17.3484ZM18.2641 16.9275C18.4815 16.9275 18.4583 17.2189 18.3566 17.3669C18.3566 17.2605 18.1716 17.2189 18.1716 17.1449C18.1716 17.0339 18.3381 17.0339 18.2641 16.9275ZM20.6691 16.6685C20.8957 16.6269 21.0021 16.8859 20.9281 17.0339C20.8957 16.9599 20.7431 16.9599 20.7107 16.8859C20.6691 16.7749 20.7431 16.7749 20.6691 16.6685ZM19.795 17.3438C19.795 17.1958 19.647 17.2143 19.647 17.0663C19.647 16.9969 19.684 16.8813 19.758 16.8813C19.7965 16.8835 19.8329 16.8998 19.8602 16.9271C19.8874 16.9543 19.9037 16.9907 19.906 17.0293C19.9383 17.1726 19.7903 17.1958 19.7903 17.3438H19.795ZM18.7312 16.9275C18.5138 16.9275 18.537 17.2189 18.6387 17.3669C18.6387 17.2605 18.8237 17.2189 18.8237 17.1449C18.8237 17.0339 18.6572 17.0339 18.7312 16.9275Z" fill="white" stroke="#C09300" stroke-width="0.13" strokeLinecap="round" strokeLinejoin="round"/>
    <path d="M16.4048 16.7425C16.4788 16.7425 16.5898 16.7749 16.6222 16.8165L16.4048 16.7425ZM16.7702 16.8535C16.8072 16.8535 16.9552 16.8859 17.0245 16.9275L16.7702 16.8535ZM18.0929 17.0015C18.0235 17.0015 17.8755 17.0015 17.8385 17.0339L18.0929 16.9969V17.0015ZM17.6905 17.0015C17.6489 16.9599 17.5055 16.9599 17.4315 17.0015H17.6905ZM20.595 16.7425C20.5166 16.7435 20.4404 16.7694 20.3777 16.8165L20.595 16.7425ZM20.2343 16.8535C20.188 16.8535 20.0493 16.8859 19.9753 16.9275L20.2343 16.8535ZM18.9069 17.0015C18.9763 17.0015 19.1243 17.0015 19.1659 17.0339L18.9069 16.9969V17.0015ZM19.3093 17.0015C19.3509 16.9599 19.4943 16.9599 19.5683 17.0015H19.3093Z" fill="white" stroke="#C09300" stroke-width="0.09" strokeLinecap="round" strokeLinejoin="round"/>
    <path d="M16.34 17.3253C16.3168 17.3206 16.303 17.2975 16.3122 17.279C16.3168 17.2466 16.34 17.2328 16.3585 17.242C16.377 17.242 16.4001 17.2698 16.4001 17.279L16.3816 17.3114L16.3723 17.316C16.3723 17.3253 16.3538 17.3253 16.34 17.3253ZM18.8837 17.5056C18.8745 17.5056 18.856 17.4825 18.856 17.4733C18.856 17.4548 18.8837 17.427 18.9022 17.427L18.9392 17.4455C18.9531 17.4594 18.9531 17.4871 18.9346 17.501C18.9253 17.5103 18.8976 17.5103 18.8837 17.501V17.5056ZM18.8976 17.6213C18.8791 17.612 18.8745 17.6028 18.8698 17.5843C18.8698 17.5611 18.8698 17.5565 18.893 17.5426L18.9115 17.5334L18.93 17.5426C18.9485 17.5519 18.9623 17.5611 18.9623 17.5796C18.9623 17.5935 18.9485 17.6074 18.93 17.6166C18.9161 17.6259 18.9115 17.6259 18.8976 17.6166V17.6213Z" fill="#C09300"/>
    <path d="M16.5482 17.1125C16.5297 17.1125 16.5065 17.131 16.4927 17.1403C16.4649 17.1449 16.4279 17.1634 16.4002 17.1403C16.3724 17.1356 16.3354 17.1403 16.3308 17.1773C16.3354 17.2096 16.377 17.2235 16.4048 17.205C16.4233 17.1819 16.4742 17.1634 16.4834 17.205C16.4603 17.242 16.4649 17.2836 16.4464 17.316C16.4464 17.3391 16.4325 17.3576 16.4233 17.3761C16.4002 17.3761 16.377 17.3761 16.3585 17.39C16.3442 17.39 16.33 17.3933 16.3172 17.3998C16.3043 17.4062 16.2932 17.4155 16.2845 17.427C16.266 17.4548 16.2475 17.4825 16.2429 17.5195C16.2475 17.5473 16.2892 17.5565 16.3169 17.5611L16.4094 17.5889L16.5574 17.6305C16.6314 17.6536 16.7054 17.6629 16.7794 17.6814L16.8025 17.686C16.8349 17.6953 16.8488 17.6629 16.8488 17.6398L16.895 17.4733C16.9043 17.4501 16.9182 17.4039 16.8765 17.4131C16.8534 17.427 16.8303 17.4501 16.8025 17.4501C16.7609 17.4501 16.784 17.4964 16.8025 17.5103C16.8025 17.538 16.7933 17.5704 16.7794 17.5935C16.7517 17.6074 16.7239 17.5935 16.6962 17.5843C16.673 17.5843 16.6175 17.5704 16.6407 17.538L16.6638 17.4548C16.6777 17.427 16.6777 17.3946 16.6869 17.3623C16.6684 17.3299 16.6407 17.3761 16.6175 17.3808C16.599 17.39 16.5435 17.3946 16.5713 17.427C16.599 17.4455 16.5805 17.4779 16.5713 17.5056C16.5713 17.538 16.5343 17.5519 16.5065 17.538C16.4788 17.538 16.4372 17.5149 16.4603 17.4871L16.4834 17.4039L16.5158 17.3114C16.5158 17.279 16.5297 17.2559 16.5435 17.2281C16.5435 17.1958 16.5667 17.168 16.5667 17.1356C16.5667 17.1218 16.5574 17.1171 16.5482 17.1171V17.1125ZM16.377 17.4501C16.3792 17.4489 16.3815 17.4483 16.384 17.4483C16.3864 17.4483 16.3888 17.4489 16.3909 17.4501C16.4002 17.4594 16.4002 17.4686 16.3909 17.4779L16.377 17.4871C16.3539 17.4871 16.3493 17.4825 16.3493 17.4733C16.3493 17.4686 16.3493 17.464 16.3632 17.4594C16.3688 17.4553 16.375 17.4522 16.3817 17.4501H16.377ZM16.3308 17.6814C16.3077 17.6629 16.3123 17.649 16.3447 17.6213C16.3632 17.612 16.3678 17.612 16.3863 17.6259C16.414 17.649 16.414 17.6629 16.3863 17.686C16.377 17.6953 16.3724 17.6953 16.3632 17.6953C16.3493 17.6953 16.3447 17.6953 16.3308 17.686V17.6814ZM16.4695 17.7276C16.4592 17.7244 16.4505 17.7173 16.4454 17.7078C16.4402 17.6983 16.4389 17.6872 16.4418 17.6768C16.451 17.6583 16.4557 17.6536 16.4834 17.6536C16.5158 17.6536 16.5204 17.6583 16.525 17.686C16.525 17.7045 16.525 17.7091 16.5112 17.7184C16.506 17.7225 16.5 17.7254 16.4937 17.727C16.4873 17.7286 16.4806 17.7288 16.4742 17.7276H16.4695ZM20.595 17.7276C20.5858 17.723 20.5812 17.7184 20.5812 17.7045C20.5812 17.686 20.5904 17.6721 20.6182 17.6629C20.6459 17.649 20.6644 17.649 20.6737 17.6721C20.6875 17.6999 20.6875 17.7091 20.669 17.7276C20.6598 17.7415 20.6552 17.7415 20.632 17.7415C20.6089 17.7415 20.6043 17.7415 20.595 17.7323V17.7276ZM16.6638 17.7831C16.6453 17.7831 16.636 17.7646 16.636 17.7461C16.636 17.7323 16.636 17.7276 16.6453 17.7184L16.673 17.7091L16.7008 17.7138C16.7239 17.7323 16.7285 17.7508 16.7147 17.7693C16.7008 17.7878 16.6869 17.7878 16.6592 17.7831H16.6638ZM17.672 17.8294L17.6628 17.8155C17.6628 17.7878 17.6628 17.7646 17.672 17.7369C17.6767 17.7138 17.672 17.6906 17.6813 17.6675L17.6998 17.538C17.6998 17.5149 17.6998 17.4918 17.709 17.4733C17.7137 17.4363 17.709 17.4039 17.7183 17.3715C17.7183 17.3576 17.7322 17.3253 17.746 17.3438C17.7645 17.3715 17.7877 17.39 17.8108 17.4131C17.8293 17.427 17.8108 17.4455 17.7969 17.4501C17.7784 17.4548 17.7738 17.4779 17.7738 17.4964L17.7645 17.5519C17.7645 17.5843 17.7645 17.612 17.7553 17.6444L17.7507 17.7276L17.7414 17.7831C17.7414 17.8016 17.7414 17.8248 17.7229 17.834C17.709 17.8433 17.6859 17.8433 17.6767 17.8294H17.672ZM19.0457 17.3761L18.9855 17.4316C18.9578 17.4548 19.0087 17.464 19.0133 17.4825C19.0225 17.5103 19.0225 17.538 19.0225 17.5658C19.0318 17.5935 19.0364 17.6166 19.0318 17.6444C19.0318 17.6768 18.9948 17.6675 18.9763 17.686C18.9532 17.6953 18.9439 17.7184 18.93 17.7323C18.919 17.7555 18.9128 17.7806 18.9115 17.8063C18.9115 17.8294 18.8977 17.8525 18.9115 17.871L18.9162 17.8803H18.9393L19.0087 17.8756C19.0642 17.8664 19.1243 17.8664 19.1798 17.8618L19.2815 17.8525C19.3093 17.8571 19.3232 17.8294 19.3232 17.8063C19.3047 17.7739 19.3185 17.7415 19.3047 17.7138C19.2954 17.6768 19.3 17.6444 19.2954 17.612C19.2954 17.5843 19.263 17.575 19.2492 17.5935C19.2307 17.612 19.2029 17.6166 19.1937 17.6351C19.1798 17.6629 19.2214 17.6629 19.2307 17.6814L19.2353 17.7508C19.2399 17.7785 19.2122 17.7785 19.189 17.7831C19.1659 17.7924 19.1335 17.797 19.1197 17.7693C19.1104 17.7461 19.1104 17.723 19.1104 17.6999C19.1104 17.6536 19.0965 17.6166 19.0965 17.575C19.0965 17.5288 19.0827 17.4779 19.0827 17.427C19.0827 17.4039 19.078 17.3715 19.0457 17.3761ZM19.0179 17.7554H19.0318V17.7924L19.0179 17.797C19.0119 17.7989 19.0057 17.8005 18.9994 17.8016C18.9963 17.8018 18.9933 17.8018 18.9902 17.8016C18.9809 17.7924 18.9809 17.7785 18.9948 17.7646L19.0179 17.7554ZM17.6304 17.3299C17.6165 17.3299 17.5934 17.3623 17.5749 17.3576C17.5333 17.3623 17.5379 17.4039 17.5703 17.4178V17.4548C17.5749 17.4918 17.5518 17.5241 17.5564 17.5611C17.5564 17.5981 17.5425 17.6398 17.5425 17.6814C17.5287 17.723 17.5287 17.7646 17.524 17.8063C17.5194 17.8433 17.4917 17.8294 17.4685 17.8201V17.7739C17.4732 17.7323 17.4454 17.723 17.413 17.7184C17.3807 17.7184 17.3668 17.6953 17.376 17.6675C17.3899 17.649 17.4223 17.6536 17.4454 17.6536C17.4917 17.6629 17.487 17.6028 17.4639 17.5796C17.4454 17.5519 17.4084 17.5334 17.3992 17.5056C17.3992 17.4686 17.376 17.427 17.3437 17.4085C17.2928 17.4039 17.2512 17.4455 17.2373 17.4918C17.2142 17.4918 17.191 17.501 17.1725 17.5103C17.1402 17.5195 17.0939 17.575 17.1402 17.5981C17.1633 17.6028 17.2419 17.6213 17.2049 17.6536C17.1864 17.6906 17.1494 17.6906 17.117 17.6814C17.0847 17.6814 17.0477 17.6629 17.0477 17.6259C17.043 17.5889 17.043 17.5519 17.0292 17.5195C17.0199 17.4825 16.9783 17.4918 16.9737 17.5288C16.9413 17.5519 16.9459 17.5935 16.969 17.6213C16.9829 17.6536 16.969 17.6953 16.9552 17.723C16.9459 17.7693 16.8997 17.7693 16.8673 17.7785C16.8534 17.7878 16.7933 17.7785 16.8164 17.8109C16.8511 17.8268 16.8899 17.8317 16.9274 17.8248C16.9644 17.8248 16.9968 17.7924 17.0199 17.76C17.043 17.7369 17.0847 17.7508 17.1217 17.7508C17.154 17.7508 17.191 17.7739 17.228 17.7554C17.2373 17.7323 17.2835 17.686 17.2974 17.7323C17.2974 17.7739 17.3298 17.7924 17.3668 17.7878C17.4084 17.7878 17.3899 17.8155 17.3899 17.8433C17.3899 17.8849 17.4223 17.908 17.4593 17.9265H17.4963C17.5287 17.9126 17.5657 17.8988 17.5795 17.8618C17.5934 17.8294 17.5934 17.7924 17.6027 17.76C17.6119 17.7091 17.6212 17.6536 17.6212 17.6028C17.635 17.5565 17.6304 17.5056 17.6397 17.4548L17.6535 17.3484C17.6535 17.3253 17.6443 17.3253 17.6304 17.3299ZM17.3205 17.5195C17.3252 17.5195 17.3298 17.5288 17.3298 17.5426C17.3298 17.5611 17.339 17.575 17.3529 17.5796V17.5935L17.3159 17.6028C17.2928 17.6028 17.2743 17.5935 17.2604 17.5796L17.2512 17.5704L17.265 17.5611L17.2882 17.538C17.302 17.5241 17.3113 17.5195 17.3205 17.5195ZM20.373 17.1541C20.3464 17.156 20.3201 17.1607 20.2944 17.168C20.2482 17.168 20.225 17.2143 20.2713 17.242C20.299 17.3114 20.3407 17.2235 20.3869 17.2328C20.4517 17.242 20.4563 17.316 20.4702 17.3715C20.4702 17.4224 20.4887 17.4733 20.5025 17.5241C20.5488 17.575 20.4702 17.6074 20.4378 17.5704C20.41 17.538 20.3453 17.501 20.3129 17.5426C20.2713 17.5611 20.2667 17.6166 20.2343 17.6351C20.1788 17.649 20.1742 17.5796 20.1418 17.5519C20.114 17.5103 20.0632 17.5056 20.0215 17.4964C20.003 17.4548 20.0123 17.3854 19.9753 17.3576C19.9383 17.3715 19.8735 17.4363 19.929 17.4686C19.9753 17.5149 19.9059 17.5334 19.8828 17.5611C19.8458 17.6028 19.8365 17.6536 19.8365 17.6999C19.7764 17.7323 19.7672 17.6629 19.7579 17.6213C19.7579 17.5704 19.7117 17.5843 19.6793 17.6028C19.633 17.6213 19.6145 17.6629 19.5868 17.6953V17.7878C19.596 17.8294 19.6423 17.8109 19.67 17.8063C19.7163 17.7878 19.7348 17.8386 19.6978 17.8664C19.67 17.8941 19.596 17.8803 19.6053 17.9311H19.6793C19.7255 17.9173 19.781 17.8803 19.7857 17.8248C19.7949 17.7785 19.8643 17.7831 19.9013 17.7739C19.9475 17.76 20.0077 17.7554 20.0215 17.8201C20.0539 17.8525 20.1233 17.8895 20.1603 17.8433C20.1779 17.8321 20.192 17.8162 20.201 17.7974C20.21 17.7786 20.2135 17.7576 20.2112 17.7369C20.2065 17.6999 20.2713 17.6999 20.2898 17.723C20.3129 17.76 20.3869 17.7508 20.4239 17.723C20.4609 17.6999 20.4702 17.649 20.5257 17.649L20.7754 17.5796C20.8402 17.5658 20.7662 17.5241 20.7477 17.4964C20.7014 17.4733 20.6552 17.575 20.5997 17.5241C20.5534 17.4918 20.558 17.4316 20.5442 17.3808C20.5303 17.316 20.5349 17.242 20.4887 17.1958C20.4609 17.1634 20.4147 17.1541 20.373 17.1541ZM20.0585 17.5935C20.0632 17.5935 20.0724 17.5935 20.0817 17.6028C20.1002 17.612 20.114 17.6305 20.114 17.649C20.114 17.6583 20.114 17.6583 20.1002 17.6629L20.077 17.6721C20.0678 17.6721 20.0447 17.6583 20.0447 17.649V17.6305C20.0354 17.612 20.0354 17.612 20.0447 17.6028L20.0585 17.5935ZM20.3592 17.612C20.3777 17.612 20.3869 17.612 20.3962 17.6259C20.4008 17.6444 20.3962 17.6536 20.3777 17.6629L20.3545 17.6721L20.336 17.6583C20.3268 17.6536 20.3222 17.649 20.3222 17.6398C20.3222 17.6259 20.3407 17.612 20.3592 17.6074V17.612ZM19.9429 17.612C19.9522 17.612 19.9568 17.612 19.9614 17.6213C19.9707 17.6305 19.9753 17.6351 19.9753 17.649V17.6768C19.9753 17.6906 19.9753 17.686 19.9475 17.686C19.9198 17.686 19.9152 17.686 19.9152 17.6583C19.9152 17.6398 19.9152 17.6351 19.929 17.6259C19.9337 17.6166 19.9429 17.6166 19.9475 17.6166L19.9429 17.612ZM19.6932 17.6814C19.6975 17.6827 19.7015 17.6851 19.7047 17.6883C19.708 17.6915 19.7103 17.6955 19.7117 17.6999C19.7117 17.7138 19.7117 17.723 19.7024 17.7276C19.6885 17.7323 19.6654 17.7369 19.6562 17.7276C19.656 17.7261 19.656 17.7245 19.6562 17.723C19.6469 17.7184 19.6469 17.7138 19.6562 17.7091V17.7045L19.6654 17.6906C19.6683 17.6861 19.6726 17.6827 19.6776 17.6811C19.6827 17.6794 19.6882 17.6795 19.6932 17.6814ZM20.1187 17.7369L20.1418 17.7415V17.7693H20.0863L20.0817 17.76C20.0817 17.7508 20.0817 17.7461 20.0909 17.7415L20.1187 17.7369ZM19.3278 17.9589C19.3232 17.9589 19.3139 17.9543 19.3232 17.9496C19.3278 17.9358 19.3463 17.9311 19.3602 17.9219C19.3854 17.9123 19.4077 17.8963 19.4249 17.8756C19.4249 17.8571 19.4434 17.8479 19.4434 17.8294L19.4388 17.7646C19.4325 17.7452 19.4194 17.7287 19.4018 17.7184C19.3879 17.7138 19.3694 17.7091 19.3648 17.6906C19.3648 17.6768 19.3787 17.6629 19.3833 17.649L19.411 17.5935C19.4249 17.5796 19.4434 17.5935 19.448 17.6028L19.4712 17.649C19.485 17.6629 19.4943 17.6768 19.4989 17.6953C19.5082 17.7138 19.5174 17.7276 19.5174 17.7415L19.5267 17.8016C19.5267 17.8248 19.5267 17.8525 19.5174 17.8756L19.4897 17.9126C19.4758 17.9265 19.4619 17.9404 19.4434 17.945C19.4295 17.9496 19.4203 17.9635 19.4018 17.9635H19.3324L19.3278 17.9589ZM19.0087 17.9774C18.9994 17.9681 18.9948 17.9635 18.9948 17.9496C18.9948 17.9358 18.9948 17.9358 19.0087 17.9219C19.0272 17.9034 19.0364 17.9034 19.0734 17.9219C19.1058 17.9404 19.1197 17.9404 19.1197 17.9265C19.1243 17.9173 19.1428 17.9034 19.1659 17.9034C19.1745 17.9037 19.1826 17.907 19.189 17.9126C19.1983 17.9219 19.2029 17.9265 19.2029 17.945C19.2029 17.9681 19.2029 17.9681 19.189 17.982C19.1752 17.9913 19.1752 17.9913 19.1567 17.9913C19.1484 17.9908 19.1405 17.9879 19.134 17.983C19.1274 17.978 19.1224 17.9713 19.1197 17.9635C19.1197 17.9543 19.1197 17.9496 19.1104 17.9589L19.1012 17.9635C19.0919 17.9635 19.0734 17.9774 19.0642 17.9866L19.041 17.9913C19.0225 17.9913 19.0225 17.9913 19.0087 17.9774ZM18.0929 17.5658C18.0605 17.5658 18.0282 17.5935 18.0235 17.6259C18.0328 17.6583 18.0605 17.6953 18.042 17.7276C18.0559 17.7739 18.005 17.7924 17.9727 17.7693C17.9542 17.723 17.9449 17.6768 17.9125 17.6305C17.8755 17.6213 17.8617 17.6814 17.8339 17.7045C17.8478 17.7369 17.8848 17.7693 17.8894 17.8109C17.8987 17.8571 17.8709 17.9034 17.8385 17.9219C17.8062 17.9543 17.7599 17.945 17.7229 17.9496C17.6767 17.9774 17.7553 17.9866 17.7784 17.9866C17.8247 17.9913 17.8755 17.9866 17.9172 17.9496C17.9495 17.9358 17.9449 17.871 17.9865 17.8664L18.2085 17.8803C18.2455 17.8895 18.3057 17.8756 18.3334 17.9034C18.3334 17.9496 18.3797 17.9866 18.4213 18.0051C18.4444 18.0144 18.4675 17.982 18.4907 17.9774C18.5369 17.9635 18.523 17.908 18.5508 17.8849H18.782C18.7913 17.8849 18.7959 17.8618 18.8098 17.8525L18.8005 17.7646C18.7867 17.7276 18.8005 17.6814 18.7774 17.649C18.7358 17.6398 18.7034 17.6721 18.6664 17.6768C18.6202 17.6953 18.5878 17.7369 18.5832 17.7831C18.56 17.8248 18.5184 17.7739 18.5369 17.7369L18.5323 17.6906C18.5092 17.6675 18.4675 17.6768 18.4352 17.6721L18.2964 17.6629C18.2502 17.6629 18.2085 17.6675 18.1715 17.6583C18.1253 17.6583 18.1253 17.612 18.1253 17.575C18.116 17.568 18.1045 17.5647 18.0929 17.5658ZM18.1854 17.7369L18.2317 17.7415H18.2918C18.338 17.7508 18.3843 17.7508 18.4305 17.7508C18.4398 17.7508 18.449 17.76 18.4583 17.7693V17.8618C18.4583 17.8756 18.4583 17.8941 18.449 17.8988C18.4466 17.9024 18.4435 17.9056 18.4398 17.908C18.433 17.9068 18.4266 17.9041 18.421 17.9001C18.4154 17.8961 18.4108 17.8909 18.4074 17.8849V17.8201C18.3983 17.8124 18.387 17.8075 18.375 17.8063L18.2548 17.8016L18.1623 17.797C18.1484 17.7924 18.1299 17.797 18.1207 17.7785C18.1114 17.7693 18.1253 17.7508 18.1392 17.7461C18.1537 17.7396 18.1695 17.7365 18.1854 17.7369ZM18.708 17.7508C18.7127 17.7508 18.7173 17.7508 18.7173 17.7646L18.7265 17.7878C18.7265 17.7924 18.7265 17.797 18.7173 17.797C18.6942 17.8063 18.671 17.8063 18.6618 17.797C18.6618 17.7924 18.6618 17.7739 18.671 17.7693L18.708 17.7508Z" fill="#C09300"/>
    <path d="M18.4999 15.133C20.0077 13.9768 19.8782 12.2747 19.8782 12.2747L19.7626 12.284C19.4434 12.284 18.6896 12.099 18.5138 11.8724C18.3288 12.0805 17.5518 12.2886 17.2373 12.2886L17.1217 12.2747C17.1217 12.2747 16.9876 13.9721 18.4999 15.133Z" fill="white" stroke="#C09300" stroke-width="0.11"/>
    <path d="M19.7579 12.395H19.7209C19.4342 12.395 18.7682 12.2516 18.5092 12.0296C18.2409 12.2331 17.5611 12.3996 17.2789 12.3996C17.2665 12.3991 17.2541 12.3976 17.2419 12.395C17.2445 12.6873 17.2849 12.978 17.3622 13.2599C17.5477 13.939 17.9466 14.5405 18.4999 14.9757C19.0537 14.5389 19.4525 13.9358 19.6377 13.2552C19.7146 12.9749 19.755 12.6857 19.7579 12.395Z" fill="white" stroke="#C09300" stroke-width="0.09"/>
    <path d="M18.0097 12.2563C17.7613 12.3371 17.503 12.3838 17.2419 12.395L17.2466 12.5846C17.2624 12.8115 17.3011 13.0362 17.3622 13.2553C17.4865 13.7101 17.7074 14.1329 18.0097 14.4948V12.2563ZM18.9624 12.2563V14.5318C19.2793 14.1615 19.51 13.7255 19.6377 13.2553C19.6987 13.0362 19.7375 12.8115 19.7533 12.5846L19.7579 12.3996H19.7209C19.5452 12.3996 19.2399 12.3441 18.9624 12.2516V12.2563Z" fill="#C09300"/>
    <path d="M19.0688 11.7013C19.1012 11.7059 19.0272 11.5394 19.0272 11.5394C19.1105 11.6226 19.4157 11.6458 19.4157 11.6458C19.2307 11.5625 19.0457 10.9474 19.0688 10.4525C19.0873 9.96225 18.9995 9.768 18.9301 9.694C18.8376 9.6015 18.537 9.51825 18.3427 9.509C18.2271 9.50438 18.2502 9.59225 18.2502 9.59225C18.0421 9.54138 17.834 9.51825 17.7415 9.583C17.6582 9.6385 17.6397 9.92988 17.7045 9.879C17.8571 9.75413 17.9912 9.86975 18.0837 10.0039C18.167 10.1195 18.1623 10.4525 18.0421 10.8456C17.9356 11.1428 17.7792 11.4197 17.5796 11.6643C17.7646 11.6643 18.0236 11.5024 18.0236 11.5024L17.9635 11.7568C18.1577 11.6643 18.3103 11.5209 18.3103 11.5209L18.4953 11.7151C18.5555 11.6319 18.6803 11.5209 18.6803 11.5209C18.6803 11.5209 18.833 11.6828 19.0688 11.7059V11.7013Z" fill="white" stroke="#C09300" stroke-width="0.12"/>
    <path d="M18.3197 10.5265C18.3197 10.5265 18.2179 11.285 18.0237 11.4978M18.4862 10.5034C18.4862 10.5034 18.4399 11.2758 18.3104 11.5209M18.6296 10.5358C18.6296 10.5358 18.6296 11.3775 18.6758 11.5209M18.8146 10.5774C18.8146 10.5774 18.8516 11.285 19.0273 11.5394" stroke="#C09300" stroke-width="0.13"/>
    <path d="M18.1298 10.1565C18.1257 10.1029 18.1099 10.0508 18.0836 10.0039C17.9911 9.86513 17.857 9.75413 17.7043 9.879C17.7043 9.879 17.7552 9.71713 17.8708 9.7125C17.9541 9.70788 18.153 9.77725 18.3287 10.0733C18.3287 10.0733 18.1992 10.0455 18.1668 10.0733C18.1113 10.1195 18.1345 10.1565 18.1345 10.1565H18.1298Z" fill="#C09300" stroke="#C09300" stroke-width="0.03"/>
    <path d="M17.686 9.68013C17.6999 9.63388 17.7184 9.59688 17.7462 9.583C17.8387 9.51825 18.0422 9.53675 18.2503 9.59225C18.2503 9.59225 18.2318 9.50438 18.3428 9.509C18.537 9.51825 18.833 9.6015 18.9255 9.694C18.9552 9.72653 18.9787 9.76413 18.9949 9.805C18.9487 9.74025 18.8192 9.74488 18.7868 9.7495C18.7405 9.75413 18.7082 9.7495 18.6434 9.768C18.611 9.77725 18.5648 9.7865 18.537 9.805C18.5185 9.8235 18.5 9.879 18.4723 9.879C18.426 9.879 18.426 9.86975 18.4122 9.85588C18.3983 9.83275 18.389 9.805 18.3705 9.80963C18.3243 9.81425 18.241 9.77725 18.1393 9.694C18.0329 9.61075 17.9913 9.59225 17.8618 9.6015C17.723 9.61075 17.686 9.68938 17.686 9.68938V9.68013Z" fill="#C09300" stroke="#C09300" stroke-width="0.03"/>
    <path d="M18.4444 9.80038C18.4751 9.80038 18.4999 9.77553 18.4999 9.74488C18.4999 9.71422 18.4751 9.68938 18.4444 9.68938C18.4138 9.68938 18.3889 9.71422 18.3889 9.74488C18.3889 9.77553 18.4138 9.80038 18.4444 9.80038Z" fill="white"/>
  </g>
  <defs>
    <clipPath id="clip0_411_4187">
      <rect width="37" height="27.75" fill="white"/>
    </clipPath>
  </defs>
</svg>