<svg xmlns="http://www.w3.org/2000/svg" width="37" height="28" viewBox="0 0 37 28" fill="none">
  <g clipPath="url(#clip0_411_4227)">
    <mask id="mask0_411_4227" style="mask-type:luminance" maskUnits="userSpaceOnUse" x="0" y="0" width="37" height="28">
      <path d="M0 0H37V27.75H0V0Z" fill="white"/>
    </mask>
    <g mask="url(#mask0_411_4227)">
      <path fill-rule="evenodd" clip-rule="evenodd" d="M-0.190674 -1.24876H40.411V30.7215H-0.190674V-1.24876Z" fill="#EF2D29"/>
      <path fill-rule="evenodd" clip-rule="evenodd" d="M10.0942 18.3439H41.0644V30.3516H10.0942V18.3439Z" fill="#009025"/>
      <path fill-rule="evenodd" clip-rule="evenodd" d="M10.0942 -2.04657H42.7524V8.93781H10.0884L10.0942 -2.04657Z" fill="white"/>
      <path d="M8.09383 4.02309H6.76736C6.69575 4.02309 6.6377 4.07728 6.6377 4.14413V4.77399C6.6377 4.84084 6.69575 4.89504 6.76736 4.89504H8.09383C8.16544 4.89504 8.22349 4.84084 8.22349 4.77399V4.14413C8.22349 4.07728 8.16544 4.02309 8.09383 4.02309Z" fill="white" stroke="#EF2D28" stroke-width="0.0328414"/>
      <path d="M8.0605 4.06001H6.80173C6.73392 4.06001 6.67896 4.11007 6.67896 4.17183V4.74834C6.67896 4.8101 6.73392 4.86016 6.80173 4.86016H8.0605C8.12831 4.86016 8.18328 4.8101 8.18328 4.74834V4.17183C8.18328 4.11007 8.12831 4.06001 8.0605 4.06001Z" fill="white" stroke="#EF2D28" stroke-width="0.0304956"/>
      <path fill-rule="evenodd" clip-rule="evenodd" d="M7.3787 4.27687L7.4545 4.27987L7.45763 4.31469L7.52015 4.34651L7.5686 4.30629L7.62722 4.3381L7.57251 4.37292L7.5858 4.42095L7.65457 4.41794V4.48098L7.59986 4.47858L7.57173 4.5182L7.63425 4.56322L7.5858 4.60044L7.53344 4.56082L7.45763 4.57643L7.46154 4.63466L7.3787 4.64066L7.36775 4.58423L7.29898 4.55542L7.26069 4.59504L7.20207 4.56562L7.23646 4.5206L7.19504 4.49178H7.13643L7.1333 4.40954L7.19191 4.41494L7.23333 4.36692L7.18488 4.3297L7.2474 4.28768L7.29195 4.32189L7.36775 4.31109L7.3787 4.27687Z" fill="white" stroke="#EF2D28" stroke-width="0.0192526"/>
      <path d="M7.40024 4.52131C7.44654 4.52131 7.48407 4.48938 7.48407 4.44999C7.48407 4.41061 7.44654 4.37868 7.40024 4.37868C7.35394 4.37868 7.31641 4.41061 7.31641 4.44999C7.31641 4.48938 7.35394 4.52131 7.40024 4.52131Z" fill="white" stroke="#EF2D28" stroke-width="0.0207327"/>
      <path fill-rule="evenodd" clip-rule="evenodd" d="M6.88198 4.09592L6.7592 4.20465L6.88198 4.09592ZM6.96345 4.09592L6.84067 4.20465L6.96345 4.09592ZM7.04377 4.09592L6.92214 4.20465L7.04377 4.09592ZM7.12524 4.09592L7.00361 4.20465L7.12524 4.09592ZM7.20671 4.09592L7.08508 4.20465L7.20671 4.09592ZM7.28818 4.09592L7.16655 4.20465L7.28818 4.09592ZM7.36965 4.09592L7.24802 4.20465L7.36965 4.09592ZM7.45112 4.09592L7.32949 4.20465L7.45112 4.09592ZM7.53259 4.09592L7.40982 4.20465L7.53259 4.09592ZM7.61406 4.09592L7.49014 4.20465L7.61406 4.09592ZM7.69324 4.09592L7.57161 4.20465L7.69324 4.09592ZM7.77471 4.09592L7.65308 4.20465L7.77471 4.09592ZM7.44998 4.09592L7.32949 4.20465L7.44998 4.09592ZM7.85733 4.09592L7.73569 4.20465L7.85733 4.09592ZM7.9388 4.09592L7.81716 4.20465L7.9388 4.09592ZM8.02027 4.09592L7.89863 4.20465L8.02027 4.09592ZM8.10174 4.09592L7.9801 4.20465L8.10174 4.09592ZM7.9801 4.09592L8.10174 4.20465L7.9801 4.09592ZM7.89863 4.09592L8.02027 4.20465L7.89863 4.09592ZM7.81716 4.09592L7.9388 4.20465L7.81716 4.09592ZM7.73569 4.09592L7.85733 4.20465L7.73569 4.09592ZM7.65422 4.09592L7.77586 4.20465L7.65422 4.09592ZM7.57276 4.09592L7.69439 4.20465L7.57276 4.09592ZM7.49129 4.09592L7.61406 4.20465L7.49129 4.09592ZM7.40982 4.09592L7.53145 4.20465L7.40982 4.09592ZM7.3272 4.09592L7.44998 4.20465L7.3272 4.09592ZM7.24688 4.09592L7.36851 4.20465L7.24688 4.09592ZM7.16541 4.09592L7.28704 4.20465L7.16541 4.09592ZM7.08394 4.09592L7.20557 4.20465L7.08394 4.09592ZM7.40982 4.09592L7.53145 4.20465L7.40982 4.09592ZM7.00361 4.09592L7.1241 4.20465L7.00361 4.09592ZM6.921 4.09592L7.04377 4.20465L6.921 4.09592ZM6.83953 4.09592L6.9623 4.20465L6.83953 4.09592ZM6.75806 4.09592L6.88198 4.20465L6.75806 4.09592ZM6.88198 4.71346L6.76035 4.82323L6.88198 4.71346ZM6.9623 4.71346L6.83953 4.82323L6.9623 4.71346ZM7.04492 4.71346L6.92214 4.82323L7.04492 4.71346ZM7.12524 4.71346L7.00361 4.82323L7.12524 4.71346ZM7.20671 4.71346L7.08508 4.82323L7.20671 4.71346ZM7.28818 4.71346L7.16655 4.82323L7.28818 4.71346ZM7.36965 4.71346L7.24917 4.82323L7.36965 4.71346ZM7.45112 4.71346L7.32949 4.82323L7.45112 4.71346ZM7.53259 4.71346L7.40982 4.82323L7.53259 4.71346ZM7.61292 4.71346L7.49014 4.82323L7.61292 4.71346ZM7.69668 4.71346L7.5739 4.82323L7.69668 4.71346ZM7.777 4.71346L7.65537 4.82323L7.777 4.71346ZM7.45112 4.71346L7.32949 4.82323L7.45112 4.71346ZM7.85733 4.71346L7.73569 4.82323L7.85733 4.71346ZM7.9388 4.71346L7.81716 4.82323L7.9388 4.71346ZM8.02027 4.71346L7.89863 4.82323L8.02027 4.71346ZM8.10174 4.71346L7.9801 4.82323L8.10174 4.71346ZM7.9801 4.71346L8.10174 4.82323L7.9801 4.71346ZM7.89863 4.71346L8.02027 4.82323L7.89863 4.71346ZM7.81716 4.71346L7.9388 4.82323L7.81716 4.71346ZM7.73569 4.71346L7.85733 4.82323L7.73569 4.71346ZM7.65422 4.71346L7.77586 4.82323L7.65422 4.71346ZM7.57276 4.71346L7.69553 4.82323L7.57276 4.71346ZM7.49014 4.71346L7.61292 4.82323L7.49014 4.71346ZM7.40982 4.71346L7.53145 4.82323L7.40982 4.71346ZM7.32949 4.71346L7.45112 4.82323L7.32949 4.71346ZM7.24802 4.71346L7.36965 4.82323L7.24802 4.71346ZM7.16655 4.71346L7.28818 4.82323L7.16655 4.71346ZM7.08508 4.71346L7.20671 4.82323L7.08508 4.71346ZM7.41096 4.71346L7.53259 4.82323L7.41096 4.71346ZM7.00476 4.71346L7.12524 4.82323L7.00476 4.71346ZM6.92214 4.71346L7.04492 4.82323L6.92214 4.71346ZM6.84067 4.71346L6.96345 4.82323L6.84067 4.71346ZM6.76035 4.71346L6.88198 4.82323L6.76035 4.71346Z" fill="white"/>
      <path d="M6.88198 4.09592L6.7592 4.20465M6.96345 4.09592L6.84067 4.20465M7.04377 4.09592L6.92214 4.20465M7.12524 4.09592L7.00361 4.20465M7.20671 4.09592L7.08508 4.20465M7.28818 4.09592L7.16655 4.20465M7.36965 4.09592L7.24802 4.20465M7.45112 4.09592L7.32949 4.20465L7.44998 4.09592M7.53259 4.09592L7.40982 4.20465M7.61406 4.09592L7.49014 4.20465M7.69324 4.09592L7.57161 4.20465M7.77471 4.09592L7.65308 4.20465M7.85733 4.09592L7.73569 4.20465M7.9388 4.09592L7.81716 4.20465M8.02027 4.09592L7.89863 4.20465M8.10174 4.09592L7.9801 4.20465M7.9801 4.09592L8.10174 4.20465M7.89863 4.09592L8.02027 4.20465M7.81716 4.09592L7.9388 4.20465M7.73569 4.09592L7.85733 4.20465M7.65422 4.09592L7.77586 4.20465M7.57276 4.09592L7.69439 4.20465M7.49129 4.09592L7.61406 4.20465M7.40982 4.09592L7.53145 4.20465M7.3272 4.09592L7.44998 4.20465M7.24688 4.09592L7.36851 4.20465M7.16541 4.09592L7.28704 4.20465M7.08394 4.09592L7.20557 4.20465M7.00361 4.09592L7.1241 4.20465M6.921 4.09592L7.04377 4.20465M6.83953 4.09592L6.9623 4.20465M6.75806 4.09592L6.88198 4.20465M6.88198 4.71346L6.76035 4.82323M6.9623 4.71346L6.83953 4.82323M7.04492 4.71346L6.92214 4.82323M7.12524 4.71346L7.00361 4.82323M7.20671 4.71346L7.08508 4.82323M7.28818 4.71346L7.16655 4.82323M7.36965 4.71346L7.24917 4.82323M7.45112 4.71346L7.32949 4.82323M7.53259 4.71346L7.40982 4.82323M7.61292 4.71346L7.49014 4.82323M7.69668 4.71346L7.5739 4.82323M7.777 4.71346L7.65537 4.82323M7.85733 4.71346L7.73569 4.82323M7.9388 4.71346L7.81716 4.82323M8.02027 4.71346L7.89863 4.82323M8.10174 4.71346L7.9801 4.82323M7.9801 4.71346L8.10174 4.82323M7.89863 4.71346L8.02027 4.82323M7.81716 4.71346L7.9388 4.82323M7.73569 4.71346L7.85733 4.82323M7.65422 4.71346L7.77586 4.82323M7.57276 4.71346L7.69553 4.82323M7.49014 4.71346L7.61292 4.82323M7.40982 4.71346L7.53145 4.82323M7.32949 4.71346L7.45112 4.82323M7.24802 4.71346L7.36965 4.82323M7.16655 4.71346L7.28818 4.82323M7.08508 4.71346L7.20671 4.82323M7.41096 4.71346L7.53259 4.82323M7.00476 4.71346L7.12524 4.82323M6.92214 4.71346L7.04492 4.82323M6.84067 4.71346L6.96345 4.82323M6.76035 4.71346L6.88198 4.82323" stroke="#EF2D28" stroke-width="0.0304956"/>
      <path d="M2.7635 3.9884H1.43704C1.36543 3.9884 1.30737 4.0426 1.30737 4.10945V4.73931C1.30737 4.80616 1.36543 4.86035 1.43704 4.86035H2.7635C2.83511 4.86035 2.89317 4.80616 2.89317 4.73931V4.10945C2.89317 4.0426 2.83511 3.9884 2.7635 3.9884Z" fill="white" stroke="#EF2D28" stroke-width="0.0328414"/>
      <path d="M2.73018 4.02533H1.47141C1.4036 4.02533 1.34863 4.07539 1.34863 4.13714V4.71366C1.34863 4.77541 1.4036 4.82547 1.47141 4.82547H2.73018C2.79799 4.82547 2.85296 4.77541 2.85296 4.71366V4.13714C2.85296 4.07539 2.79799 4.02533 2.73018 4.02533Z" fill="white" stroke="#EF2D28" stroke-width="0.0304956"/>
      <path fill-rule="evenodd" clip-rule="evenodd" d="M2.04837 4.24219L2.12418 4.24519L2.12731 4.28001L2.18983 4.31182L2.23828 4.2716L2.2969 4.30342L2.24219 4.33824L2.25548 4.38626L2.32425 4.38326V4.44629L2.26954 4.44389L2.24141 4.48351L2.30393 4.52854L2.25548 4.56576L2.20311 4.52614L2.12731 4.54174L2.13121 4.59997L2.04837 4.60598L2.03743 4.54955L1.96866 4.52073L1.93037 4.56035L1.87175 4.53094L1.90614 4.48591L1.86472 4.4571H1.8061L1.80298 4.37486L1.86159 4.38026L1.90301 4.33223L1.85456 4.29501L1.91708 4.25299L1.96163 4.28721L2.03743 4.27641L2.04837 4.24219Z" fill="white" stroke="#EF2D28" stroke-width="0.0192526"/>
      <path d="M2.06992 4.48663C2.11622 4.48663 2.15375 4.4547 2.15375 4.41531C2.15375 4.37592 2.11622 4.34399 2.06992 4.34399C2.02362 4.34399 1.98608 4.37592 1.98608 4.41531C1.98608 4.4547 2.02362 4.48663 2.06992 4.48663Z" fill="white" stroke="#EF2D28" stroke-width="0.0207327"/>
      <path fill-rule="evenodd" clip-rule="evenodd" d="M1.5519 4.06123L1.42913 4.16997L1.5519 4.06123ZM1.63337 4.06123L1.5106 4.16997L1.63337 4.06123ZM1.7137 4.06123L1.59207 4.16997L1.7137 4.06123ZM1.79517 4.06123L1.67354 4.16997L1.79517 4.06123ZM1.87664 4.06123L1.75501 4.16997L1.87664 4.06123ZM1.95811 4.06123L1.83648 4.16997L1.95811 4.06123ZM2.03958 4.06123L1.91795 4.16997L2.03958 4.06123ZM2.12105 4.06123L1.99941 4.16997L2.12105 4.06123ZM2.20252 4.06123L2.07974 4.16997L2.20252 4.06123ZM2.28399 4.06123L2.16006 4.16997L2.28399 4.06123ZM2.36316 4.06123L2.24153 4.16997L2.36316 4.06123ZM2.44463 4.06123L2.323 4.16997L2.44463 4.06123ZM2.1199 4.06123L1.99941 4.16997L2.1199 4.06123ZM2.52725 4.06123L2.40562 4.16997L2.52725 4.06123ZM2.60872 4.06123L2.48709 4.16997L2.60872 4.06123ZM2.69019 4.06123L2.56856 4.16997L2.69019 4.06123ZM2.77166 4.06123L2.65003 4.16997L2.77166 4.06123ZM2.65003 4.06123L2.77166 4.16997L2.65003 4.06123ZM2.56856 4.06123L2.69019 4.16997L2.56856 4.06123ZM2.48709 4.06123L2.60872 4.16997L2.48709 4.06123ZM2.40562 4.06123L2.52725 4.16997L2.40562 4.06123ZM2.32415 4.06123L2.44578 4.16997L2.32415 4.06123ZM2.24268 4.06123L2.36431 4.16997L2.24268 4.06123ZM2.16121 4.06123L2.28399 4.16997L2.16121 4.06123ZM2.07974 4.06123L2.20137 4.16997L2.07974 4.06123ZM1.99712 4.06123L2.1199 4.16997L1.99712 4.06123ZM1.9168 4.06123L2.03843 4.16997L1.9168 4.06123ZM1.83533 4.06123L1.95696 4.16997L1.83533 4.06123ZM1.75386 4.06123L1.87549 4.16997L1.75386 4.06123ZM2.07974 4.06123L2.20137 4.16997L2.07974 4.06123ZM1.67354 4.06123L1.79402 4.16997L1.67354 4.06123ZM1.59092 4.06123L1.7137 4.16997L1.59092 4.06123ZM1.50945 4.06123L1.63223 4.16997L1.50945 4.06123ZM1.42798 4.06123L1.5519 4.16997L1.42798 4.06123ZM1.5519 4.67878L1.43027 4.78854L1.5519 4.67878ZM1.63223 4.67878L1.50945 4.78854L1.63223 4.67878ZM1.71484 4.67878L1.59207 4.78854L1.71484 4.67878ZM1.79517 4.67878L1.67354 4.78854L1.79517 4.67878ZM1.87664 4.67878L1.75501 4.78854L1.87664 4.67878ZM1.95811 4.67878L1.83648 4.78854L1.95811 4.67878ZM2.03958 4.67878L1.91909 4.78854L2.03958 4.67878ZM2.12105 4.67878L1.99941 4.78854L2.12105 4.67878ZM2.20252 4.67878L2.07974 4.78854L2.20252 4.67878ZM2.28284 4.67878L2.16006 4.78854L2.28284 4.67878ZM2.3666 4.67878L2.24382 4.78854L2.3666 4.67878ZM2.44693 4.67878L2.32529 4.78854L2.44693 4.67878ZM2.12105 4.67878L1.99941 4.78854L2.12105 4.67878ZM2.52725 4.67878L2.40562 4.78854L2.52725 4.67878ZM2.60872 4.67878L2.48709 4.78854L2.60872 4.67878ZM2.69019 4.67878L2.56856 4.78854L2.69019 4.67878ZM2.77166 4.67878L2.65003 4.78854L2.77166 4.67878ZM2.65003 4.67878L2.77166 4.78854L2.65003 4.67878ZM2.56856 4.67878L2.69019 4.78854L2.56856 4.67878ZM2.48709 4.67878L2.60872 4.78854L2.48709 4.67878ZM2.40562 4.67878L2.52725 4.78854L2.40562 4.67878ZM2.32415 4.67878L2.44578 4.78854L2.32415 4.67878ZM2.24268 4.67878L2.36546 4.78854L2.24268 4.67878ZM2.16006 4.67878L2.28284 4.78854L2.16006 4.67878ZM2.07974 4.67878L2.20137 4.78854L2.07974 4.67878ZM1.99941 4.67878L2.12105 4.78854L1.99941 4.67878ZM1.91795 4.67878L2.03958 4.78854L1.91795 4.67878ZM1.83648 4.67878L1.95811 4.78854L1.83648 4.67878ZM1.75501 4.67878L1.87664 4.78854L1.75501 4.67878ZM2.08088 4.67878L2.20252 4.78854L2.08088 4.67878ZM1.67468 4.67878L1.79517 4.78854L1.67468 4.67878ZM1.59207 4.67878L1.71484 4.78854L1.59207 4.67878ZM1.5106 4.67878L1.63337 4.78854L1.5106 4.67878ZM1.43027 4.67878L1.5519 4.78854L1.43027 4.67878Z" fill="white"/>
      <path d="M1.5519 4.06123L1.42913 4.16997M1.63337 4.06123L1.5106 4.16997M1.7137 4.06123L1.59207 4.16997M1.79517 4.06123L1.67354 4.16997M1.87664 4.06123L1.75501 4.16997M1.95811 4.06123L1.83648 4.16997M2.03958 4.06123L1.91795 4.16997M2.12105 4.06123L1.99941 4.16997L2.1199 4.06123M2.20252 4.06123L2.07974 4.16997M2.28399 4.06123L2.16006 4.16997M2.36316 4.06123L2.24153 4.16997M2.44463 4.06123L2.323 4.16997M2.52725 4.06123L2.40562 4.16997M2.60872 4.06123L2.48709 4.16997M2.69019 4.06123L2.56856 4.16997M2.77166 4.06123L2.65003 4.16997M2.65003 4.06123L2.77166 4.16997M2.56856 4.06123L2.69019 4.16997M2.48709 4.06123L2.60872 4.16997M2.40562 4.06123L2.52725 4.16997M2.32415 4.06123L2.44578 4.16997M2.24268 4.06123L2.36431 4.16997M2.16121 4.06123L2.28399 4.16997M2.07974 4.06123L2.20137 4.16997M1.99712 4.06123L2.1199 4.16997M1.9168 4.06123L2.03843 4.16997M1.83533 4.06123L1.95696 4.16997M1.75386 4.06123L1.87549 4.16997M1.67354 4.06123L1.79402 4.16997M1.59092 4.06123L1.7137 4.16997M1.50945 4.06123L1.63223 4.16997M1.42798 4.06123L1.5519 4.16997M1.5519 4.67878L1.43027 4.78854M1.63223 4.67878L1.50945 4.78854M1.71484 4.67878L1.59207 4.78854M1.79517 4.67878L1.67354 4.78854M1.87664 4.67878L1.75501 4.78854M1.95811 4.67878L1.83648 4.78854M2.03958 4.67878L1.91909 4.78854M2.12105 4.67878L1.99941 4.78854M2.20252 4.67878L2.07974 4.78854M2.28284 4.67878L2.16006 4.78854M2.3666 4.67878L2.24382 4.78854M2.44693 4.67878L2.32529 4.78854M2.52725 4.67878L2.40562 4.78854M2.60872 4.67878L2.48709 4.78854M2.69019 4.67878L2.56856 4.78854M2.77166 4.67878L2.65003 4.78854M2.65003 4.67878L2.77166 4.78854M2.56856 4.67878L2.69019 4.78854M2.48709 4.67878L2.60872 4.78854M2.40562 4.67878L2.52725 4.78854M2.32415 4.67878L2.44578 4.78854M2.24268 4.67878L2.36546 4.78854M2.16006 4.67878L2.28284 4.78854M2.07974 4.67878L2.20137 4.78854M1.99941 4.67878L2.12105 4.78854M1.91795 4.67878L2.03958 4.78854M1.83648 4.67878L1.95811 4.78854M1.75501 4.67878L1.87664 4.78854M2.08088 4.67878L2.20252 4.78854M1.67468 4.67878L1.79517 4.78854M1.59207 4.67878L1.71484 4.78854M1.5106 4.67878L1.63337 4.78854M1.43027 4.67878L1.5519 4.78854" stroke="#EF2D28" stroke-width="0.0304956"/>
      <path fill-rule="evenodd" clip-rule="evenodd" d="M3.79697 5.81353C1.82385 7.74866 0.982142 7.99311 1.37787 8.1493C1.77359 8.30549 3.04384 7.30655 4.36539 5.98087C5.68693 4.6552 6.49644 3.47439 6.10071 3.3182C5.70499 3.16201 5.89616 3.75712 3.79697 5.81353Z" fill="white" stroke="#EF2D28" stroke-width="0.0510375"/>
      <path fill-rule="evenodd" clip-rule="evenodd" d="M2.13865 7.22162L2.83057 7.40319C2.17996 8.02176 1.44787 8.27514 1.24477 8.1664C1.04167 8.05767 1.61081 7.80326 2.13979 7.22264L2.13865 7.22162Z" fill="white" stroke="#EF2D28" stroke-width="0.0281498"/>
      <path fill-rule="evenodd" clip-rule="evenodd" d="M2.13845 7.29367L2.7085 7.43867C2.07473 8.03347 1.44768 8.20214 1.2856 8.12915C1.12241 8.05714 1.62428 7.85296 2.13845 7.29367Z" fill="white" stroke="#EF2D28" stroke-width="0.0295141"/>
      <path d="M4.25757 5.73091C4.25595 5.74024 4.2511 5.78187 4.24706 5.79837C4.24706 5.82134 4.24464 5.83856 4.24221 5.85651C4.23575 5.8723 4.23656 5.88665 4.21716 5.89239C4.20821 5.90674 4.19393 5.9179 4.17676 5.92397C4.16123 5.93503 4.14411 5.9442 4.12585 5.95124C4.10674 5.95862 4.08542 5.96013 4.06524 5.95555C4.04746 5.94478 4.03453 5.9333 4.01999 5.92397C4.01675 5.90961 4.01352 5.8888 4.00948 5.87445C4.01579 5.89359 4.01932 5.91336 4.01999 5.9333C4.01837 5.95483 4.00948 5.96488 3.99978 5.9821" stroke="#EF2D28" stroke-width="0.0296388"/>
      <path d="M4.07428 6.03135L4.06943 6.02704C4.08155 6.03781 4.0767 6.03278 4.04922 6.01771C4.02983 6.0091 4.00882 6.00479 3.98377 6.00049H3.91266C3.88518 6.00049 3.86659 6.00408 3.8472 6.0091C3.83265 6.02202 3.81164 6.0292 3.79629 6.04068C3.78264 6.04984 3.77226 6.0623 3.76639 6.07656C3.75265 6.08876 3.74376 6.10742 3.73083 6.11675C3.72518 6.13757 3.71386 6.13685 3.70578 6.15264C3.73002 6.15407 3.74861 6.15694 3.76154 6.17058C3.78255 6.17991 3.74376 6.16125 3.73568 6.15264C3.71952 6.14833 3.71548 6.14403 3.69043 6.14403C3.6678 6.13685 3.65325 6.14905 3.62982 6.15264C3.61608 6.15981 3.61204 6.16197 3.59426 6.16197" stroke="#EF2D28" stroke-width="0.0296388"/>
      <path d="M3.802 6.25468C3.7915 6.25468 3.74463 6.26257 3.72604 6.25468C3.70503 6.24965 3.69372 6.24032 3.68079 6.2231C3.67432 6.2109 3.68079 6.24463 3.68079 6.25898C3.67836 6.28554 3.66947 6.28554 3.65493 6.30348C3.64038 6.31209 3.62503 6.32358 3.60967 6.33075C3.59621 6.34051 3.58088 6.34805 3.56442 6.353C3.54826 6.36018 3.53129 6.36592 3.51917 6.37525C3.5022 6.38601 3.503 6.39893 3.49331 6.41616C3.49573 6.43769 3.49977 6.45061 3.51351 6.46065C3.51997 6.47572 3.5329 6.4908 3.54422 6.50084C3.55634 6.52237 3.57088 6.5317 3.53937 6.53673C3.52159 6.54391 3.51189 6.53816 3.49331 6.53673" stroke="#EF2D28" stroke-width="0.0296388"/>
      <path d="M3.48169 6.56741C3.46876 6.56454 3.42512 6.55163 3.40573 6.54517H3.33461C3.30795 6.54732 3.30229 6.5545 3.27966 6.56311C3.26431 6.57674 3.25461 6.58607 3.2336 6.59469C3.2231 6.60689 3.20128 6.62842 3.1932 6.64421C3.18655 6.66276 3.18327 6.68215 3.1835 6.70162C3.1835 6.72818 3.19158 6.7332 3.1932 6.75617C3.19885 6.77589 3.20934 6.79427 3.2239 6.80999C3.22633 6.81573 3.22795 6.81717 3.2336 6.8186" stroke="#EF2D28" stroke-width="0.0296388"/>
      <path d="M3.24341 6.87713C3.24111 6.87713 3.23652 6.88846 3.22906 6.89809C3.21243 6.91508 3.21071 6.91622 3.18604 6.91622C3.16309 6.91508 3.16595 6.90715 3.14989 6.90205C3.14243 6.89072 3.13325 6.88166 3.12465 6.86636C3.11891 6.8573 3.11374 6.84314 3.10743 6.83464C3.10055 6.82388 3.09252 6.81595 3.08563 6.80631C3.07875 6.80348 3.07645 6.80065 3.06727 6.79895C3.08793 6.80235 3.09022 6.80971 3.10342 6.82048C3.10992 6.83073 3.11586 6.84132 3.1212 6.8522C3.1235 6.8675 3.12809 6.87939 3.12866 6.89809C3.12866 6.91792 3.12866 6.93151 3.1212 6.94794C3.1126 6.95644 3.10686 6.9655 3.09596 6.97287C3.08689 6.98156 3.07863 6.99104 3.07129 7.00119L3.03859 7.02215C3.02826 7.02838 3.01621 7.03462 2.99957 7.03632C2.97834 7.03462 2.97203 7.02895 2.95654 7.02215C2.94277 7.01252 2.93245 7.00629 2.9204 6.99723C2.91051 6.98917 2.90199 6.97961 2.89515 6.9689C2.87622 6.96437 2.8636 6.96607 2.85212 6.97627C2.84239 6.98297 2.83402 6.99143 2.82745 7.00119C2.82172 7.00402 2.81139 7.01252 2.80565 7.01536" stroke="#EF2D28" stroke-width="0.0283512"/>
      <path d="M2.84703 7.02692C2.85273 7.02904 2.87413 7.04388 2.88269 7.04883C2.8884 7.06792 2.89767 7.07782 2.90052 7.09832C2.90552 7.1167 2.90552 7.13791 2.90552 7.15983C2.90052 7.18245 2.89125 7.19872 2.88269 7.21639C2.86843 7.22629 2.86129 7.23336 2.84275 7.24326C2.82492 7.24608 2.80708 7.2482 2.78497 7.2482C2.77071 7.25245 2.74503 7.25457 2.73147 7.2482C2.7115 7.24538 2.69652 7.2376 2.68226 7.23053C2.66585 7.22134 2.65587 7.21215 2.63803 7.20366C2.62876 7.19094 2.61521 7.17892 2.60237 7.16407C2.59096 7.14923 2.58311 7.14074 2.57526 7.12448C2.5824 7.14286 2.59167 7.15983 2.59738 7.17751C2.60808 7.19589 2.61378 7.20296 2.61521 7.22558C2.62234 7.24396 2.6202 7.26659 2.6202 7.2878C2.61806 7.30194 2.61735 7.3288 2.61093 7.34082V7.35425" stroke="#EF2D28" stroke-width="0.029173"/>
      <path d="M2.18902 7.4237V7.43088C2.18902 7.41344 2.18902 7.42165 2.19705 7.45653C2.20967 7.47089 2.24295 7.47499 2.26819 7.46884C2.29114 7.4514 2.29114 7.43806 2.33245 7.43088C2.37376 7.43293 2.38982 7.44319 2.41277 7.45653C2.43717 7.46463 2.45753 7.48028 2.47014 7.50064C2.47818 7.52218 2.48277 7.53757 2.45523 7.54577C2.43124 7.56013 2.40364 7.56895 2.37491 7.57142C2.34278 7.57142 2.31868 7.56834 2.30376 7.58476C2.28081 7.60527 2.28311 7.61758 2.28311 7.65451C2.27508 7.6658 2.27393 7.69965 2.26819 7.71298C2.24844 7.72228 2.22621 7.72654 2.20393 7.72529C2.1959 7.70478 2.18787 7.6699 2.18213 7.64836C2.17639 7.62579 2.17525 7.59296 2.16033 7.57757C2.14717 7.55991 2.13044 7.5446 2.11099 7.53244C2.09938 7.52067 2.08425 7.51213 2.06738 7.50782C2.09607 7.52013 2.09951 7.53449 2.10296 7.56526C2.07886 7.57552 2.07197 7.58373 2.03181 7.58476C1.99165 7.58168 1.98247 7.57245 1.96756 7.55193C1.96411 7.58476 1.95264 7.59501 1.94461 7.62374C1.93084 7.6422 1.9251 7.66169 1.91018 7.68734C1.91592 7.71811 1.92969 7.71914 1.93084 7.75709C1.94002 7.78274 1.94002 7.80633 1.95952 7.82172C1.9687 7.83198 1.97559 7.833 1.99624 7.83403C1.95493 7.83403 1.92969 7.82993 1.90215 7.81557C1.8815 7.80326 1.86543 7.78889 1.84478 7.77658C1.81889 7.75915 1.78976 7.74595 1.75872 7.7376C1.72544 7.7376 1.70134 7.73453 1.68757 7.75094C1.66692 7.76427 1.65315 7.78684 1.64397 7.81557C1.63823 7.84839 1.63479 7.87096 1.652 7.8925C1.66348 7.91712 1.66692 7.92635 1.652 7.9561C1.63479 7.97662 1.6107 7.9797 1.57168 7.9879C1.54529 7.98688 1.5189 7.98175 1.50054 7.97559" stroke="#EF2D28" stroke-width="0.0281498"/>
      <path fill-rule="evenodd" clip-rule="evenodd" d="M6.05061 4.06872C6.92564 2.55412 7.50598 1.26348 7.34775 1.19042C7.18789 1.1166 6.34819 2.28749 5.47316 3.80209L6.05061 4.06872Z" fill="white" stroke="#EF2D28" stroke-width="0.0387692"/>
      <path fill-rule="evenodd" clip-rule="evenodd" d="M5.99281 4.04311C6.83696 2.58196 7.4183 1.34678 7.29172 1.28834C7.16383 1.22929 6.37499 2.36865 5.53083 3.82981" fill="white"/>
      <path d="M5.99281 4.04311C6.83696 2.58196 7.4183 1.34678 7.29172 1.28834C7.16383 1.22929 6.37499 2.36865 5.53083 3.82981" stroke="#EF2D28" stroke-width="0.0340592"/>
      <path fill-rule="evenodd" clip-rule="evenodd" d="M5.84778 3.28088C5.745 3.45163 5.6361 3.64727 5.53079 3.82956L5.99406 4.04347C6.09937 3.86118 6.21479 3.66855 6.31105 3.49478L5.84778 3.28088Z" fill="white" stroke="#EF2D28" stroke-width="0.0386549"/>
      <path fill-rule="evenodd" clip-rule="evenodd" d="M5.88808 3.33988C5.78477 3.51155 5.71379 3.64157 5.60795 3.82477L5.95377 3.98444C6.05908 3.80216 6.13764 3.67333 6.2339 3.49956L5.88808 3.33988Z" fill="white" stroke="#EF2D28" stroke-width="0.0386549"/>
      <path fill-rule="evenodd" clip-rule="evenodd" d="M6.13939 3.53792L5.90775 3.43096L5.7024 3.78642L5.93403 3.89338L6.13939 3.53792ZM6.13939 3.53792L5.7024 3.78642L6.13939 3.53792ZM5.93403 3.89338L5.90775 3.43096L5.93403 3.89338ZM7.18408 1.72963L6.95245 1.62268L7.18408 1.72963Z" fill="white"/>
      <path d="M6.13939 3.53792L5.90775 3.43096M6.13939 3.53792L5.93403 3.89338M6.13939 3.53792L5.7024 3.78642M5.90775 3.43096L5.7024 3.78642M5.90775 3.43096L5.93403 3.89338M5.7024 3.78642L5.93403 3.89338M7.18408 1.72963L6.95245 1.62268" stroke="#EF2D28" stroke-width="0.0386549"/>
      <path d="M7.18266 1.56146C7.14707 1.57046 7.11171 1.55238 7.10368 1.52107C7.09564 1.48977 7.11798 1.4571 7.15357 1.4481C7.18917 1.4391 7.22453 1.45719 7.23256 1.48849C7.24059 1.51979 7.21825 1.55247 7.18266 1.56146Z" fill="#EF0000" stroke="#EF2D28" stroke-width="0.0500864"/>
      <path fill-rule="evenodd" clip-rule="evenodd" d="M5.70767 5.77885C7.68078 7.71398 8.5225 7.95843 8.12677 8.11462C7.73105 8.27081 6.4608 7.27186 5.13925 5.94619C3.8177 4.62051 3.0082 3.43971 3.40393 3.28352C3.79965 3.12733 3.60848 3.72244 5.70767 5.77885Z" fill="white" stroke="#EF2D28" stroke-width="0.0510375"/>
      <path fill-rule="evenodd" clip-rule="evenodd" d="M7.36599 7.18692L6.67407 7.36849C7.32468 7.98706 8.05676 8.24044 8.25987 8.1317C8.46297 8.02297 7.89382 7.76856 7.36484 7.18795L7.36599 7.18692Z" fill="white" stroke="#EF2D28" stroke-width="0.0281498"/>
      <path fill-rule="evenodd" clip-rule="evenodd" d="M7.36644 7.2532L6.79639 7.3982C7.43015 7.993 8.0572 8.16168 8.21928 8.08868C8.38247 8.01667 7.8806 7.81249 7.36644 7.2532Z" fill="white" stroke="#EF2D28" stroke-width="0.0295141"/>
      <path d="M5.24707 5.69044C5.24869 5.69977 5.25354 5.7414 5.25758 5.75791C5.25758 5.78087 5.26 5.7981 5.26242 5.81604C5.26889 5.83183 5.26808 5.84618 5.28748 5.85192C5.29643 5.86628 5.31071 5.87744 5.32788 5.8835C5.34341 5.89456 5.36053 5.90373 5.37879 5.91077C5.39789 5.91815 5.41922 5.91966 5.4394 5.91508C5.45718 5.90431 5.47011 5.89283 5.48465 5.8835C5.48788 5.86915 5.49112 5.84834 5.49516 5.83398C5.48885 5.85312 5.48532 5.8729 5.48465 5.89283C5.48627 5.91436 5.49516 5.92441 5.50486 5.94163" stroke="#EF2D28" stroke-width="0.0296388"/>
      <path d="M5.43061 5.99088L5.43546 5.98658C5.42333 5.99734 5.42818 5.99232 5.45566 5.97725C5.47505 5.96863 5.49606 5.96433 5.52111 5.96002H5.59223C5.6197 5.96002 5.63829 5.96361 5.65768 5.96863C5.67223 5.98155 5.69324 5.98873 5.70859 6.00021C5.72224 6.00937 5.73262 6.02183 5.73849 6.0361C5.75223 6.0483 5.76112 6.06696 5.77405 6.07629C5.77971 6.0971 5.79102 6.09638 5.7991 6.11217C5.77486 6.11361 5.75627 6.11648 5.74334 6.13011C5.72233 6.13944 5.76112 6.12078 5.7692 6.11217C5.78536 6.10786 5.7894 6.10356 5.81446 6.10356C5.83708 6.09638 5.85163 6.10858 5.87506 6.11217C5.8888 6.11935 5.89284 6.1215 5.91062 6.1215" stroke="#EF2D28" stroke-width="0.0296388"/>
      <path d="M5.70264 6.21998C5.71314 6.21998 5.76001 6.22787 5.7786 6.21998C5.79961 6.21496 5.81092 6.20563 5.82385 6.1884C5.83032 6.1762 5.82385 6.20993 5.82385 6.22429C5.82628 6.25084 5.83517 6.25084 5.84971 6.26878C5.86426 6.27739 5.87961 6.28888 5.89497 6.29605C5.90843 6.30581 5.92376 6.31335 5.94022 6.3183C5.95638 6.32548 5.97335 6.33122 5.98547 6.34055C6.00244 6.35132 6.00163 6.36423 6.01133 6.38146C6.00891 6.40299 6.00487 6.41591 5.99113 6.42595C5.98466 6.44103 5.97174 6.4561 5.96042 6.46615C5.9483 6.48768 5.93375 6.49701 5.96527 6.50203C5.98305 6.50921 5.99275 6.50347 6.01133 6.50203" stroke="#EF2D28" stroke-width="0.0296388"/>
      <path d="M6.02295 6.53275C6.03588 6.52988 6.07952 6.51696 6.09891 6.5105H6.17002C6.19669 6.51265 6.20235 6.51983 6.22498 6.52844C6.24033 6.54208 6.25003 6.55141 6.27104 6.56002C6.28154 6.57222 6.30336 6.59375 6.31144 6.60954C6.31809 6.6281 6.32137 6.64748 6.32114 6.66695C6.32114 6.69351 6.31306 6.69853 6.31144 6.7215C6.30578 6.74123 6.2953 6.7596 6.28073 6.77532C6.27831 6.78107 6.27669 6.7825 6.27104 6.78394" stroke="#EF2D28" stroke-width="0.0296388"/>
      <path d="M6.26709 6.84243C6.26938 6.84243 6.27397 6.85376 6.28143 6.86339C6.29807 6.88039 6.29979 6.88152 6.32446 6.88152C6.34741 6.88039 6.34454 6.87245 6.36061 6.86736C6.36807 6.85603 6.37725 6.84696 6.38585 6.83167C6.39159 6.8226 6.39675 6.80844 6.40306 6.79994C6.40995 6.78918 6.41798 6.78125 6.42487 6.77162C6.43175 6.76878 6.43405 6.76595 6.44323 6.76425C6.42257 6.76765 6.42028 6.77502 6.40708 6.78578C6.40057 6.79603 6.39464 6.80662 6.38929 6.8175C6.387 6.8328 6.38241 6.8447 6.38184 6.86339C6.38184 6.88322 6.38184 6.89681 6.38929 6.91324C6.3979 6.92174 6.40364 6.9308 6.41454 6.93817C6.42361 6.94686 6.43186 6.95634 6.43921 6.96649L6.47191 6.98745C6.48224 6.99369 6.49429 6.99992 6.51093 7.00162C6.53215 6.99992 6.53846 6.99425 6.55396 6.98745C6.56773 6.97782 6.57805 6.97159 6.5901 6.96253C6.59999 6.95447 6.60851 6.94491 6.61534 6.9342C6.63428 6.92967 6.6469 6.93137 6.65837 6.94157C6.66811 6.94828 6.67648 6.95673 6.68305 6.96649C6.68878 6.96933 6.69911 6.97782 6.70485 6.98066" stroke="#EF2D28" stroke-width="0.0283512"/>
      <path d="M6.65785 6.98645C6.65215 6.98857 6.63075 7.00342 6.62219 7.00837C6.61648 7.02746 6.60721 7.03735 6.60436 7.05786C6.59937 7.07624 6.59937 7.09745 6.59937 7.11936C6.60436 7.14199 6.61363 7.15825 6.62219 7.17592C6.63646 7.18582 6.64359 7.19289 6.66213 7.20279C6.67997 7.20562 6.6978 7.20774 6.71991 7.20774C6.73418 7.21198 6.75986 7.2141 6.77341 7.20774C6.79338 7.20491 6.80836 7.19713 6.82263 7.19006C6.83903 7.18087 6.84902 7.17168 6.86685 7.1632C6.87612 7.15047 6.88967 7.13845 6.90251 7.12361C6.91393 7.10876 6.92177 7.10028 6.92962 7.08402C6.92249 7.1024 6.91321 7.11936 6.90751 7.13704C6.89681 7.15542 6.8911 7.16249 6.88967 7.18511C6.88254 7.2035 6.88468 7.22612 6.88468 7.24733C6.88682 7.26147 6.88753 7.28833 6.89395 7.30035V7.31379" stroke="#EF2D28" stroke-width="0.029173"/>
      <path d="M7.31562 7.389V7.39618C7.31562 7.37874 7.31562 7.38695 7.30759 7.42183C7.29497 7.43619 7.26169 7.44029 7.23645 7.43414C7.2135 7.4167 7.2135 7.40336 7.17219 7.39618C7.13088 7.39823 7.11482 7.40849 7.09187 7.42183C7.06746 7.42994 7.04711 7.44558 7.03449 7.46594C7.02646 7.48748 7.02187 7.50287 7.04941 7.51107C7.0734 7.52543 7.101 7.53425 7.12973 7.53672C7.16186 7.53672 7.18596 7.53364 7.20088 7.55006C7.22383 7.57057 7.22153 7.58288 7.22153 7.61981C7.22956 7.6311 7.23071 7.66495 7.23645 7.67828C7.2562 7.68758 7.27843 7.69184 7.30071 7.69059C7.30874 7.67008 7.31677 7.6352 7.32251 7.61366C7.32825 7.59109 7.32939 7.55826 7.34431 7.54288C7.35747 7.52521 7.3742 7.5099 7.39365 7.49774C7.40525 7.48598 7.42039 7.47743 7.43725 7.47312C7.40857 7.48543 7.40512 7.49979 7.40168 7.53057C7.42578 7.54082 7.43266 7.54903 7.47283 7.55006C7.51299 7.54698 7.52217 7.53775 7.53708 7.51723C7.54053 7.55006 7.552 7.56031 7.56003 7.58904C7.5738 7.6075 7.57954 7.62699 7.59446 7.65264C7.58872 7.68341 7.57495 7.68444 7.5738 7.7224C7.56462 7.74804 7.56462 7.77163 7.54512 7.78702C7.53594 7.79728 7.52905 7.79831 7.5084 7.79933C7.5497 7.79933 7.57495 7.79523 7.60249 7.78087C7.62314 7.76856 7.63921 7.7542 7.65986 7.74189C7.68575 7.72445 7.71488 7.71125 7.74592 7.7029C7.7792 7.7029 7.80329 7.69983 7.81706 7.71624C7.83772 7.72958 7.85149 7.75214 7.86067 7.78087C7.8664 7.81369 7.86985 7.83626 7.85263 7.8578C7.84116 7.88242 7.83772 7.89166 7.85263 7.9214C7.86985 7.94192 7.89394 7.945 7.93296 7.95321C7.95935 7.95218 7.98574 7.94705 8.0041 7.9409" stroke="#EF2D28" stroke-width="0.0281498"/>
      <path fill-rule="evenodd" clip-rule="evenodd" d="M3.45403 4.03404C2.57899 2.51943 1.99866 1.22879 2.15689 1.15573C2.31675 1.08192 3.15645 2.2528 4.03148 3.76741L3.45403 4.03404Z" fill="white" stroke="#EF2D28" stroke-width="0.0387692"/>
      <path fill-rule="evenodd" clip-rule="evenodd" d="M3.51183 4.00843C2.66768 2.54727 2.08633 1.3121 2.21292 1.25365C2.34081 1.1946 3.12965 2.33397 3.97381 3.79512" fill="white"/>
      <path d="M3.51183 4.00843C2.66768 2.54727 2.08633 1.3121 2.21292 1.25365C2.34081 1.1946 3.12965 2.33397 3.97381 3.79512" stroke="#EF2D28" stroke-width="0.0340592"/>
      <path fill-rule="evenodd" clip-rule="evenodd" d="M3.65686 3.24619C3.75964 3.41695 3.86854 3.61259 3.97385 3.79488L3.51058 4.00878C3.40527 3.8265 3.28985 3.63387 3.19359 3.4601L3.65686 3.24619Z" fill="white" stroke="#EF2D28" stroke-width="0.0386549"/>
      <path fill-rule="evenodd" clip-rule="evenodd" d="M3.61656 3.3052C3.71987 3.47687 3.79085 3.60688 3.89669 3.79008L3.55087 3.94976C3.44555 3.76747 3.36699 3.63864 3.27074 3.46488L3.61656 3.3052Z" fill="white" stroke="#EF2D28" stroke-width="0.0386549"/>
      <path fill-rule="evenodd" clip-rule="evenodd" d="M3.36525 3.50323L3.59689 3.39628L3.80224 3.75174L3.57061 3.85869L3.36525 3.50323ZM3.36525 3.50323L3.80224 3.75174L3.36525 3.50323ZM3.57061 3.85869L3.59689 3.39628L3.57061 3.85869ZM2.32056 1.69495L2.55219 1.58799L2.32056 1.69495Z" fill="white"/>
      <path d="M3.36525 3.50323L3.59689 3.39628M3.36525 3.50323L3.57061 3.85869M3.36525 3.50323L3.80224 3.75174M3.59689 3.39628L3.80224 3.75174M3.59689 3.39628L3.57061 3.85869M3.80224 3.75174L3.57061 3.85869M2.32056 1.69495L2.55219 1.58799" stroke="#EF2D28" stroke-width="0.0386549"/>
      <path d="M2.32197 1.52678C2.35757 1.53578 2.39293 1.51769 2.40096 1.48639C2.40899 1.45509 2.38665 1.42241 2.35106 1.41342C2.31547 1.40442 2.28011 1.4225 2.27208 1.45381C2.26404 1.48511 2.28638 1.51778 2.32197 1.52678Z" fill="#EF0000" stroke="#EF2D28" stroke-width="0.0500864"/>
      <path fill-rule="evenodd" clip-rule="evenodd" d="M4.15388 3.26212C4.15388 4.53414 4.16153 5.0132 4.0682 5.07885C3.97947 5.14963 1.51172 5.07885 1.51172 5.44199C1.51172 5.80514 3.54344 6.17033 4.15388 6.17033C4.96779 6.17033 5.37322 5.80616 5.37322 5.07885V3.26314H4.15388V3.26212Z" fill="white" stroke="#EF2D28" stroke-width="0.0352129"/>
      <path fill-rule="evenodd" clip-rule="evenodd" d="M4.1543 3.62521V3.80678C4.55768 3.86725 4.96952 3.86725 5.3729 3.80678V3.62521C4.96952 3.68568 4.55768 3.68568 4.1543 3.62521Z" fill="white" stroke="#EF2D28" stroke-width="0.0304956"/>
      <path fill-rule="evenodd" clip-rule="evenodd" d="M4.1543 3.26207V3.44364C4.55768 3.50411 4.96952 3.50411 5.3729 3.44364V3.26207C4.96952 3.32254 4.55768 3.32254 4.1543 3.26207Z" fill="white" stroke="#EF2D28" stroke-width="0.0304956"/>
      <path fill-rule="evenodd" clip-rule="evenodd" d="M4.1543 3.44365V3.62522C4.55768 3.68569 4.96952 3.68569 5.3729 3.62522V3.44365C4.96952 3.50412 4.55768 3.50412 4.1543 3.44365Z" fill="white" stroke="#EF2D28" stroke-width="0.0304956"/>
      <path fill-rule="evenodd" clip-rule="evenodd" d="M4.1543 3.80679V3.98836C4.55768 4.04883 4.96952 4.04883 5.3729 3.98836V3.80679C4.96952 3.86726 4.55768 3.86726 4.1543 3.80679Z" fill="white" stroke="#EF2D28" stroke-width="0.0304956"/>
      <path d="M4.20976 3.58571C4.24052 3.58571 4.26546 3.56814 4.26546 3.54646C4.26546 3.52479 4.24052 3.50722 4.20976 3.50722C4.17899 3.50722 4.15405 3.52479 4.15405 3.54646C4.15405 3.56814 4.17899 3.58571 4.20976 3.58571Z" fill="white" stroke="#EF2D28" stroke-width="0.0289101"/>
      <path d="M4.43144 3.60527C4.4622 3.60527 4.48714 3.5877 4.48714 3.56603C4.48714 3.54435 4.4622 3.52678 4.43144 3.52678C4.40067 3.52678 4.37573 3.54435 4.37573 3.56603C4.37573 3.5877 4.40067 3.60527 4.43144 3.60527Z" fill="white" stroke="#EF2D28" stroke-width="0.0289101"/>
      <path d="M4.6536 3.62523C4.68437 3.62523 4.70931 3.60766 4.70931 3.58598C4.70931 3.56431 4.68437 3.54674 4.6536 3.54674C4.62284 3.54674 4.5979 3.56431 4.5979 3.58598C4.5979 3.60766 4.62284 3.62523 4.6536 3.62523Z" fill="white" stroke="#EF2D28" stroke-width="0.0289101"/>
      <path d="M4.87504 3.62523C4.9058 3.62523 4.93074 3.60766 4.93074 3.58598C4.93074 3.56431 4.9058 3.54674 4.87504 3.54674C4.84428 3.54674 4.81934 3.56431 4.81934 3.58598C4.81934 3.60766 4.84428 3.62523 4.87504 3.62523Z" fill="white" stroke="#EF2D28" stroke-width="0.0289101"/>
      <path d="M5.09672 3.60527C5.12748 3.60527 5.15242 3.5877 5.15242 3.56603C5.15242 3.54435 5.12748 3.52678 5.09672 3.52678C5.06595 3.52678 5.04102 3.54435 5.04102 3.56603C5.04102 3.5877 5.06595 3.60527 5.09672 3.60527Z" fill="white" stroke="#EF2D28" stroke-width="0.0289101"/>
      <path d="M5.31889 3.58571C5.34965 3.58571 5.37459 3.56814 5.37459 3.54646C5.37459 3.52479 5.34965 3.50722 5.31889 3.50722C5.28812 3.50722 5.26318 3.52479 5.26318 3.54646C5.26318 3.56814 5.28812 3.58571 5.31889 3.58571Z" fill="white" stroke="#EF2D28" stroke-width="0.0289101"/>
      <path fill-rule="evenodd" clip-rule="evenodd" d="M4.15444 4.16997L5.37305 5.15168L4.15444 4.16997ZM4.27607 4.16997L5.3742 5.04192L4.27607 4.16997ZM4.43787 4.2069L5.3742 4.93421L4.43787 4.2069ZM4.5595 4.20587L5.3742 4.82444L4.5595 4.20587ZM4.68228 4.2069L5.37305 4.71571L4.68228 4.2069ZM4.80391 4.2069L5.37305 4.60697L4.80391 4.2069ZM4.92554 4.2069L5.37305 4.49721L4.92554 4.2069ZM5.04946 4.2069L5.37534 4.42437L5.04946 4.2069ZM5.16995 4.2069L5.3742 4.35256L5.16995 4.2069ZM5.29273 4.2069L5.37305 4.27871L5.29273 4.2069ZM4.15444 4.27871L5.37305 5.26145L4.15444 4.27871ZM5.37305 4.17099L4.03052 5.26042L5.37305 4.17099ZM5.25027 4.16997L4.07183 5.11578L5.25027 4.16997ZM5.08848 4.2069L4.1533 4.93318L5.08848 4.2069ZM4.9657 4.2069L4.1533 4.82444L4.9657 4.2069ZM4.84522 4.2069L4.15444 4.71571L4.84522 4.2069ZM4.72358 4.2069L4.15444 4.60697L4.72358 4.2069ZM4.60195 4.2069L4.15444 4.49721L4.60195 4.2069ZM4.47803 4.2069L4.1533 4.42437L4.47803 4.2069ZM4.3564 4.2069L4.1533 4.35256L4.3564 4.2069ZM4.23362 4.2069L4.1533 4.27871L4.23362 4.2069ZM5.37305 4.27871L4.03052 5.37121L5.37305 4.27871ZM5.37305 4.38949L4.03052 5.47892L5.37305 4.38949ZM5.37305 4.49721L4.03052 5.58766L5.37305 4.49721ZM5.37305 4.60594L4.03052 5.69845L5.37305 4.60594ZM5.37305 4.71673L4.03052 5.80616L5.37305 4.71673ZM5.37305 4.82444L4.03052 5.9149L5.37305 4.82444ZM5.37305 4.93318L4.03052 6.02363L5.37305 4.93318ZM5.37305 5.04294L4.03052 6.1334L5.37305 5.04294ZM5.37305 5.15168L4.11199 6.1693L5.37305 5.15168ZM5.37305 5.26042L4.23477 6.1693L5.37305 5.26042ZM5.33174 5.40609L4.43672 6.1334L5.33174 5.40609ZM5.29273 5.55073L4.56065 6.13237L5.29273 5.55073ZM5.21126 5.7323L4.84407 6.02261L5.21126 5.7323ZM4.15444 4.38744L5.33289 5.33223L4.15444 4.38744ZM4.15444 4.49618L5.33289 5.44199L4.15444 4.49618ZM4.15444 4.60697L5.29273 5.51482L4.15444 4.60697ZM4.15444 4.71468L5.29273 5.62459L4.15444 4.71468ZM4.15444 4.82444L5.25142 5.6964L4.15444 4.82444ZM4.11314 4.89728L5.21126 5.76923L4.11314 4.89728ZM4.11314 5.00704L5.12979 5.80718L4.11314 5.00704ZM4.07297 5.07885L5.08963 5.87899L4.07297 5.07885ZM4.03052 5.15066L5.00586 5.91387L4.03052 5.15066ZM4.03052 5.25939L4.9657 5.9867L4.03052 5.25939ZM4.03052 5.36916L4.84522 6.02261L4.03052 5.36916Z" fill="white"/>
      <path d="M4.15444 4.16997L5.37305 5.15168L4.11199 6.1693M4.27607 4.16997L5.3742 5.04192M4.43787 4.2069L5.3742 4.93421M4.5595 4.20587L5.3742 4.82444M4.68228 4.2069L5.37305 4.71571M4.80391 4.2069L5.37305 4.60697M4.92554 4.2069L5.37305 4.49721L4.03052 5.58766M5.04946 4.2069L5.37534 4.42437M5.16995 4.2069L5.3742 4.35256M5.29273 4.2069L5.37305 4.27871L4.03052 5.37121M4.15444 4.27871L5.37305 5.26145M5.37305 4.17099L4.03052 5.26042M5.25027 4.16997L4.07183 5.11578M5.08848 4.2069L4.1533 4.93318M4.9657 4.2069L4.1533 4.82444M4.84522 4.2069L4.15444 4.71571M4.72358 4.2069L4.15444 4.60697L5.29273 5.51482M4.60195 4.2069L4.15444 4.49721M4.47803 4.2069L4.1533 4.42437M4.3564 4.2069L4.1533 4.35256M4.23362 4.2069L4.1533 4.27871M5.37305 4.38949L4.03052 5.47892M5.37305 4.60594L4.03052 5.69845M5.37305 4.71673L4.03052 5.80616M5.37305 4.82444L4.03052 5.9149M5.37305 4.93318L4.03052 6.02363M5.37305 5.04294L4.03052 6.1334M5.37305 5.26042L4.23477 6.1693M5.33174 5.40609L4.43672 6.1334M5.29273 5.55073L4.56065 6.13237M5.21126 5.7323L4.84407 6.02261M4.15444 4.38744L5.33289 5.33223M4.15444 4.49618L5.33289 5.44199M4.15444 4.71468L5.29273 5.62459M4.15444 4.82444L5.25142 5.6964M4.11314 4.89728L5.21126 5.76923M4.11314 5.00704L5.12979 5.80718M4.07297 5.07885L5.08963 5.87899M4.03052 5.15066L5.00586 5.91387M4.03052 5.25939L4.9657 5.9867M4.03052 5.36916L4.84522 6.02261" stroke="#EF2D28" stroke-width="0.0304956"/>
      <path fill-rule="evenodd" clip-rule="evenodd" d="M4.1543 3.98938V4.17095C4.55768 4.23142 4.96952 4.23142 5.3729 4.17095V3.98938C4.96952 4.04985 4.55768 4.04985 4.1543 3.98938Z" fill="white" stroke="#EF2D28" stroke-width="0.0304956"/>
      <path fill-rule="evenodd" clip-rule="evenodd" d="M4.03167 5.47893L4.76375 6.06057L4.03167 5.47893ZM4.03167 5.58869L4.68228 6.09647L4.03167 5.58869ZM4.03167 5.6964L4.60081 6.1334L4.03167 5.6964ZM4.03167 5.80514L4.43901 6.1334L4.03167 5.80514ZM4.03052 5.9149L4.3564 6.16931L4.03052 5.9149ZM4.03052 6.02364L4.23362 6.16931L4.03052 6.02364Z" fill="white"/>
      <path d="M4.03167 5.47893L4.76375 6.06057M4.03167 5.58869L4.68228 6.09647M4.03167 5.6964L4.60081 6.1334M4.03167 5.80514L4.43901 6.1334M4.03052 5.9149L4.3564 6.16931M4.03052 6.02364L4.23362 6.16931" stroke="#EF2D28" stroke-width="0.0304956"/>
      <path d="M4.20976 4.13146C4.24052 4.13146 4.26546 4.11389 4.26546 4.09221C4.26546 4.07053 4.24052 4.05296 4.20976 4.05296C4.17899 4.05296 4.15405 4.07053 4.15405 4.09221C4.15405 4.11389 4.17899 4.13146 4.20976 4.13146Z" fill="white" stroke="#EF2D28" stroke-width="0.0289101"/>
      <path d="M4.43144 4.151C4.4622 4.151 4.48714 4.13343 4.48714 4.11176C4.48714 4.09008 4.4622 4.07251 4.43144 4.07251C4.40067 4.07251 4.37573 4.09008 4.37573 4.11176C4.37573 4.13343 4.40067 4.151 4.43144 4.151Z" fill="white" stroke="#EF2D28" stroke-width="0.0289101"/>
      <path d="M4.6536 4.16994C4.68437 4.16994 4.70931 4.15237 4.70931 4.13069C4.70931 4.10902 4.68437 4.09145 4.6536 4.09145C4.62284 4.09145 4.5979 4.10902 4.5979 4.13069C4.5979 4.15237 4.62284 4.16994 4.6536 4.16994Z" fill="white" stroke="#EF2D28" stroke-width="0.0289101"/>
      <path d="M4.87504 4.16994C4.9058 4.16994 4.93074 4.15237 4.93074 4.13069C4.93074 4.10902 4.9058 4.09145 4.87504 4.09145C4.84428 4.09145 4.81934 4.10902 4.81934 4.13069C4.81934 4.15237 4.84428 4.16994 4.87504 4.16994Z" fill="white" stroke="#EF2D28" stroke-width="0.0289101"/>
      <path d="M5.09672 4.151C5.12748 4.151 5.15242 4.13343 5.15242 4.11176C5.15242 4.09008 5.12748 4.07251 5.09672 4.07251C5.06595 4.07251 5.04102 4.09008 5.04102 4.11176C5.04102 4.13343 5.06595 4.151 5.09672 4.151Z" fill="white" stroke="#EF2D28" stroke-width="0.0289101"/>
      <path d="M5.31889 4.13146C5.34965 4.13146 5.37459 4.11389 5.37459 4.09221C5.37459 4.07053 5.34965 4.05296 5.31889 4.05296C5.28812 4.05296 5.26318 4.07053 5.26318 4.09221C5.26318 4.11389 5.28812 4.13146 5.31889 4.13146Z" fill="white" stroke="#EF2D28" stroke-width="0.0289101"/>
      <path fill-rule="evenodd" clip-rule="evenodd" d="M2.40571 5.879L3.86873 5.11578L2.40571 5.879ZM2.32424 5.84207L3.70694 5.11578L2.32424 5.84207ZM2.28408 5.76923L3.544 5.11578L2.28408 5.76923ZM2.24277 5.69743L3.3409 5.11578L2.24277 5.69743ZM2.16016 5.62459L3.17681 5.11578L2.16016 5.62459ZM2.20146 5.51586L2.89224 5.15169L2.20146 5.51586ZM2.16016 5.442L2.68799 5.15169L2.16016 5.442ZM2.16016 5.33326L2.52734 5.15169L2.16016 5.33326ZM2.52734 5.9149L3.90889 5.18759L2.52734 5.9149ZM2.65012 5.95081L3.9502 5.26043L2.65012 5.95081ZM2.77175 5.98773L3.99151 5.33326L2.77175 5.98773ZM2.89338 6.02364L3.91004 5.47893L2.89338 6.02364ZM3.05518 6.02364L3.9502 5.55176L3.05518 6.02364ZM3.17681 6.06057L3.94905 5.6605L3.17681 6.06057ZM3.29844 6.09647L3.90889 5.76923L3.29844 6.09647ZM3.46138 6.0975L3.94905 5.84207L3.46138 6.0975ZM3.62432 6.1334L3.9502 5.95081L3.62432 6.1334ZM3.78955 6.1334L3.99265 6.02466L3.78955 6.1334Z" fill="white"/>
      <path d="M2.40571 5.879L3.86873 5.11578M2.32424 5.84207L3.70694 5.11578M2.28408 5.76923L3.544 5.11578M2.24277 5.69743L3.3409 5.11578M2.16016 5.62459L3.17681 5.11578M2.20146 5.51586L2.89224 5.15169M2.16016 5.442L2.68799 5.15169M2.16016 5.33326L2.52734 5.15169M2.52734 5.9149L3.90889 5.18759M2.65012 5.95081L3.9502 5.26043M2.77175 5.98773L3.99151 5.33326M2.89338 6.02364L3.91004 5.47893M3.05518 6.02364L3.9502 5.55176M3.17681 6.06057L3.94905 5.6605M3.29844 6.09647L3.90889 5.76923M3.46138 6.0975L3.94905 5.84207M3.62432 6.1334L3.9502 5.95081M3.78955 6.1334L3.99265 6.02467" stroke="#EF2D28" stroke-width="0.0304956"/>
      <path fill-rule="evenodd" clip-rule="evenodd" d="M4.07178 5.07988H3.86868C3.80104 5.4405 3.80104 5.80868 3.86868 6.16931H4.07178C4.00414 5.80868 4.00414 5.4405 4.07178 5.07988Z" fill="white" stroke="#EF2D28" stroke-width="0.0304956"/>
      <path fill-rule="evenodd" clip-rule="evenodd" d="M1.67358 5.58766L2.16126 5.22452L1.67358 5.58766ZM1.67358 5.33326L2.16126 5.76923L1.67358 5.33326Z" fill="white"/>
      <path d="M1.67358 5.58766L2.16126 5.22452M1.67358 5.33326L2.16126 5.76923" stroke="#EF2D28" stroke-width="0.0304956"/>
      <path fill-rule="evenodd" clip-rule="evenodd" d="M2.40576 5.15096L2.16158 5.18734C2.10742 5.41798 2.10742 5.61158 2.16158 5.84222L2.40576 5.91434C2.3516 5.68435 2.3516 5.38159 2.40576 5.15096Z" fill="white" stroke="#EF2D28" stroke-width="0.0217069"/>
      <path fill-rule="evenodd" clip-rule="evenodd" d="M5.373 3.33393V3.15031C5.18904 3.15236 5.06697 3.04259 5.06697 2.93283L4.45836 2.93386C4.45836 3.04259 4.33801 3.15236 4.15405 3.15236V3.33393H5.373Z" fill="white" stroke="#EF2D28" stroke-width="0.0373282"/>
      <path fill-rule="evenodd" clip-rule="evenodd" d="M4.50098 2.71638H5.02422V2.93488H4.50098V2.71638ZM4.54573 2.49788H4.98062V2.71638H4.54458L4.54573 2.49788ZM4.54573 2.2804H4.98062V2.49788H4.54458L4.54573 2.2804ZM4.58933 1.98907H4.93701V2.2804H4.58933V1.98907ZM4.57441 1.73466H4.95308V1.98907H4.57441V1.73466Z" fill="white"/>
      <path d="M4.98062 2.49788H4.54573L4.54458 2.71638H4.98062V2.49788ZM4.98062 2.49788V2.2804H4.54573L4.54458 2.49788H4.98062ZM4.50098 2.71638H5.02422V2.93488H4.50098V2.71638ZM4.58933 1.98907H4.93701V2.2804H4.58933V1.98907ZM4.57441 1.73466H4.95308V1.98907H4.57441V1.73466Z" stroke="#EF2D28" stroke-width="0.0328414"/>
      <path d="M4.78321 1.84442C5.06151 1.84442 5.28712 1.68964 5.28712 1.49872C5.28712 1.30779 5.06151 1.15302 4.78321 1.15302C4.50491 1.15302 4.2793 1.30779 4.2793 1.49872C4.2793 1.68964 4.50491 1.84442 4.78321 1.84442Z" fill="white" stroke="#EF2D28" stroke-width="0.0309992"/>
      <path fill-rule="evenodd" clip-rule="evenodd" d="M5.03581 1.48025C5.03581 1.57565 5.16149 1.73465 5.16149 1.73465C5.07019 1.79826 4.92198 1.84442 4.78326 1.84442C4.64454 1.84442 4.47143 1.81775 4.40503 1.73465C4.40503 1.73465 4.53071 1.57668 4.53071 1.48128C4.53071 1.38587 4.40503 1.26277 4.40503 1.26277C4.51508 1.19281 4.64788 1.15475 4.78444 1.15404C4.92198 1.15404 5.06901 1.2002 5.16149 1.26277C5.16149 1.26277 5.03581 1.38587 5.03581 1.48128V1.48025Z" fill="white" stroke="#EF2D28" stroke-width="0.0309992"/>
      <path fill-rule="evenodd" clip-rule="evenodd" d="M4.95167 1.48025C4.95167 1.57565 5.07735 1.77158 5.07735 1.77158C4.98605 1.83313 4.92321 1.84339 4.7833 1.84339C4.6434 1.84339 4.55566 1.85468 4.48926 1.77158C4.48926 1.77158 4.61494 1.57668 4.61494 1.48025C4.61494 1.38382 4.48926 1.22585 4.48926 1.22585C4.58055 1.1643 4.6434 1.15404 4.7833 1.15404C4.92203 1.15404 4.98605 1.1643 5.07735 1.22585C5.07735 1.22585 4.95167 1.38485 4.95167 1.48025Z" fill="white" stroke="#EF2D28" stroke-width="0.0309992"/>
      <path d="M4.27925 1.6249C4.34866 1.6249 4.40493 1.57622 4.40493 1.51616C4.40493 1.45611 4.34866 1.40742 4.27925 1.40742C4.20983 1.40742 4.15356 1.45611 4.15356 1.51616C4.15356 1.57622 4.20983 1.6249 4.27925 1.6249Z" fill="white" stroke="#EF2D28" stroke-width="0.0309992"/>
      <path d="M5.28803 1.6249C5.35745 1.6249 5.41372 1.57622 5.41372 1.51616C5.41372 1.45611 5.35745 1.40742 5.28803 1.40742C5.21862 1.40742 5.16235 1.45611 5.16235 1.51616C5.16235 1.57622 5.21862 1.6249 5.28803 1.6249Z" fill="white" stroke="#EF2D28" stroke-width="0.0309992"/>
      <path d="M4.78413 1.6249C4.85354 1.6249 4.90981 1.57622 4.90981 1.51616C4.90981 1.45611 4.85354 1.40742 4.78413 1.40742C4.71472 1.40742 4.65845 1.45611 4.65845 1.51616C4.65845 1.57622 4.71472 1.6249 4.78413 1.6249Z" fill="white" stroke="#EF2D28" stroke-width="0.0309992"/>
      <path d="M4.78413 1.26176C4.85354 1.26176 4.90981 1.21307 4.90981 1.15302C4.90981 1.09296 4.85354 1.04428 4.78413 1.04428C4.71472 1.04428 4.65845 1.09296 4.65845 1.15302C4.65845 1.21307 4.71472 1.26176 4.78413 1.26176Z" fill="white" stroke="#EF2D28" stroke-width="0.0309992"/>
      <path d="M4.41581 3.33393C4.4877 3.33393 4.54598 3.28525 4.54598 3.22519C4.54598 3.16514 4.4877 3.11646 4.41581 3.11646C4.34392 3.11646 4.28564 3.16514 4.28564 3.22519C4.28564 3.28525 4.34392 3.33393 4.41581 3.33393Z" fill="white" stroke="#EF2D28" stroke-width="0.0315479"/>
      <path d="M5.11113 3.33393C5.18302 3.33393 5.2413 3.28525 5.2413 3.22519C5.2413 3.16514 5.18302 3.11646 5.11113 3.11646C5.03924 3.11646 4.98096 3.16514 4.98096 3.22519C4.98096 3.28525 5.03924 3.33393 5.11113 3.33393Z" fill="white" stroke="#EF2D28" stroke-width="0.0315479"/>
      <path fill-rule="evenodd" clip-rule="evenodd" d="M4.45874 2.93385H5.06784L4.76329 3.26109L4.45874 2.93385Z" fill="white" stroke="#EF2D28" stroke-width="0.0315479"/>
      <path d="M4.76268 3.33317C4.85854 3.33317 4.93625 3.26826 4.93625 3.18819C4.93625 3.10812 4.85854 3.04321 4.76268 3.04321C4.66682 3.04321 4.58911 3.10812 4.58911 3.18819C4.58911 3.26826 4.66682 3.33317 4.76268 3.33317Z" fill="white" stroke="#EF2D28" stroke-width="0.0420643"/>
      <path d="M4.98154 4.27519H4.14504C4.11779 4.27519 4.0957 4.29219 4.0957 4.31315V4.45574C4.0957 4.4767 4.11779 4.49369 4.14504 4.49369H4.98154C5.00879 4.49369 5.03089 4.4767 5.03089 4.45574V4.31315C5.03089 4.29219 5.00879 4.27519 4.98154 4.27519Z" fill="white" stroke="#EF2D28" stroke-width="0.0281498"/>
      <path fill-rule="evenodd" clip-rule="evenodd" d="M5.31541 4.09362C5.20296 4.09362 5.11231 4.17876 5.11231 4.28339V4.44855C5.11155 4.47297 5.11622 4.49728 5.12604 4.52008C5.13586 4.54288 5.15065 4.5637 5.16954 4.58135C5.18843 4.59901 5.21105 4.61313 5.23609 4.62291C5.26113 4.63269 5.28809 4.63793 5.31541 4.63833C5.34274 4.63793 5.3697 4.63269 5.39474 4.62291C5.41978 4.61313 5.4424 4.59901 5.46129 4.58135C5.48018 4.5637 5.49497 4.54288 5.50479 4.52008C5.51461 4.49728 5.51928 4.47297 5.51851 4.44855V4.28442C5.51943 4.25991 5.51488 4.23549 5.50513 4.21258C5.49538 4.18966 5.48062 4.16871 5.46171 4.15095C5.4428 4.13319 5.42013 4.11897 5.39501 4.10913C5.36989 4.09928 5.34284 4.09401 5.31541 4.09362ZM5.31541 4.16542C5.24771 4.16542 5.19378 4.23415 5.19378 4.31827V4.41367C5.19378 4.49779 5.24771 4.5655 5.31541 4.5655C5.38311 4.5655 5.43705 4.49779 5.43705 4.41367V4.31827C5.43705 4.23415 5.38311 4.16645 5.31541 4.16645V4.16542ZM4.2586 4.12952C4.18975 4.12952 4.13697 4.19722 4.13697 4.28237V4.4506C4.13697 4.53472 4.1909 4.60243 4.2586 4.60243C4.3263 4.60243 4.38023 4.53472 4.38023 4.4506V4.28134C4.38023 4.1962 4.3263 4.12849 4.2586 4.12849V4.12952ZM4.2586 4.05771C4.23128 4.05811 4.20432 4.06335 4.17928 4.07313C4.15424 4.08291 4.13161 4.09703 4.11272 4.11469C4.09383 4.13234 4.07905 4.15317 4.06923 4.17596C4.0594 4.19876 4.05474 4.22307 4.0555 4.24749V4.48548C4.05474 4.5099 4.0594 4.53421 4.06923 4.55701C4.07905 4.57981 4.09383 4.60063 4.11272 4.61828C4.13161 4.63594 4.15424 4.65006 4.17928 4.65984C4.20432 4.66962 4.23128 4.67486 4.2586 4.67526C4.37105 4.67526 4.4617 4.59012 4.4617 4.48548V4.24749C4.46262 4.22299 4.45807 4.19856 4.44832 4.17565C4.43856 4.15273 4.4238 4.13178 4.4049 4.11402C4.38599 4.09626 4.36332 4.08204 4.3382 4.0722C4.31308 4.06235 4.28602 4.05708 4.2586 4.05669V4.05771Z" fill="white" stroke="#EF2D28" stroke-width="0.0281498"/>
      <path fill-rule="evenodd" clip-rule="evenodd" d="M3.93267 4.20235C3.86497 4.20235 3.81104 4.27005 3.81104 4.35417V4.39418C3.81104 4.4783 3.86497 4.546 3.93267 4.546C4.00152 4.546 4.05545 4.4783 4.05545 4.39418V4.35417C4.05545 4.27005 4.00037 4.20235 3.93267 4.20235ZM3.93267 4.13054C3.90535 4.13094 3.87839 4.13618 3.85335 4.14596C3.82831 4.15574 3.80569 4.16987 3.7868 4.18752C3.76791 4.20517 3.75312 4.226 3.7433 4.24879C3.73348 4.27159 3.72881 4.2959 3.72957 4.32032V4.42906C3.72881 4.45348 3.73348 4.47779 3.7433 4.50059C3.75312 4.52338 3.76791 4.54421 3.7868 4.56186C3.80569 4.57951 3.82831 4.59364 3.85335 4.60342C3.87839 4.6132 3.90535 4.61844 3.93267 4.61884C4.04512 4.61884 4.13692 4.53369 4.13692 4.42906V4.32032C4.13784 4.29573 4.13325 4.27122 4.12343 4.24824C4.11361 4.22526 4.09874 4.20426 4.07972 4.18649C4.06069 4.16871 4.03788 4.15452 4.01263 4.14473C3.98738 4.13495 3.96019 4.12978 3.93267 4.12952V4.13054Z" fill="white" stroke="#EF2D28" stroke-width="0.0281498"/>
      <path fill-rule="evenodd" clip-rule="evenodd" d="M3.44647 4.10201C3.32254 4.10201 3.22547 4.17768 3.22547 4.27169V4.46086C3.22547 4.55372 3.32461 4.63053 3.44647 4.63053C3.56626 4.63053 3.6654 4.55487 3.6654 4.45971V4.27169C3.6654 4.17768 3.56626 4.10201 3.44647 4.10201ZM3.44647 4.02176C3.39729 4.02206 3.34871 4.02777 3.30354 4.03856C3.25836 4.04935 3.21749 4.06501 3.1833 4.08463C3.14911 4.10425 3.12226 4.12744 3.10433 4.15286C3.0864 4.17828 3.07773 4.20542 3.07882 4.23271V4.49869C3.07717 4.52608 3.08536 4.55337 3.10291 4.57898C3.12047 4.60459 3.14704 4.628 3.18107 4.64785C3.2151 4.6677 3.25591 4.68359 3.30112 4.6946C3.34634 4.7056 3.39504 4.71149 3.4444 4.71193C3.64888 4.71193 3.81205 4.61677 3.81205 4.49869V4.23271C3.81342 4.20542 3.80503 4.17825 3.78734 4.15277C3.76966 4.12729 3.74305 4.10402 3.70905 4.08429C3.67504 4.06456 3.63433 4.04878 3.58925 4.03785C3.54418 4.02692 3.49565 4.02106 3.44647 4.02061V4.02176Z" fill="white" stroke="#EF2D28" stroke-width="0.0299444"/>
      <path fill-rule="evenodd" clip-rule="evenodd" d="M6.08905 4.13792C5.96512 4.13792 5.86805 4.21358 5.86805 4.30759V4.49676C5.86805 4.58962 5.96719 4.66644 6.08905 4.66644C6.20884 4.66644 6.30798 4.59077 6.30798 4.49561V4.30759C6.30798 4.21358 6.20884 4.13792 6.08905 4.13792ZM6.08905 4.05766C6.03987 4.05796 5.99129 4.06367 5.94611 4.07446C5.90094 4.08525 5.86007 4.10091 5.82588 4.12053C5.79168 4.14015 5.76484 4.16334 5.74691 4.18876C5.72897 4.21418 5.7203 4.24132 5.7214 4.26861V4.53459C5.71975 4.56198 5.72794 4.58927 5.74549 4.61488C5.76305 4.64049 5.78962 4.66391 5.82365 4.68376C5.85768 4.70361 5.89849 4.7195 5.9437 4.7305C5.98891 4.7415 6.03762 4.74739 6.08698 4.74784C6.29146 4.74784 6.45463 4.65268 6.45463 4.53459V4.26861C6.456 4.24132 6.4476 4.21415 6.42992 4.18867C6.41224 4.1632 6.38563 4.13992 6.35163 4.12019C6.31762 4.10047 6.27691 4.08468 6.23183 4.07375C6.18676 4.06282 6.13823 4.05696 6.08905 4.05652V4.05766Z" fill="white" stroke="#EF2D28" stroke-width="0.0299444"/>
      <path d="M5.85801 4.27519H5.42312C5.40854 4.27519 5.39673 4.29219 5.39673 4.31315V4.45574C5.39673 4.4767 5.40854 4.49369 5.42312 4.49369H5.85801C5.87258 4.49369 5.8844 4.4767 5.8844 4.45574V4.31315C5.8844 4.29219 5.87258 4.27519 5.85801 4.27519Z" fill="white" stroke="#EF2D28" stroke-width="0.0281498"/>
      <path d="M5.21887 4.23929H4.96414C4.9559 4.23929 4.94922 4.26179 4.94922 4.28955V4.48036C4.94922 4.50812 4.9559 4.53062 4.96414 4.53062H5.21887C5.22711 4.53062 5.23379 4.50812 5.23379 4.48036V4.28955C5.23379 4.26179 5.22711 4.23929 5.21887 4.23929Z" fill="white" stroke="#EF2D28" stroke-width="0.0281498"/>
      <path d="M3.87756 4.23929H3.62283C3.61459 4.23929 3.60791 4.26179 3.60791 4.28955V4.48036C3.60791 4.50812 3.61459 4.53062 3.62283 4.53062H3.87756C3.8858 4.53062 3.89248 4.50812 3.89248 4.48036V4.28955C3.89248 4.26179 3.8858 4.23929 3.87756 4.23929Z" fill="white" stroke="#EF2D28" stroke-width="0.0281498"/>
      <path d="M3.2522 4.20236H2.74272C2.72625 4.20236 2.71289 4.23038 2.71289 4.26494V4.50293C2.71289 4.53749 2.72625 4.5655 2.74272 4.5655H3.2522C3.26867 4.5655 3.28203 4.53749 3.28203 4.50293V4.26494C3.28203 4.23038 3.26867 4.20236 3.2522 4.20236Z" fill="white" stroke="#EF2D28" stroke-width="0.0281498"/>
      <path d="M6.75078 4.23929H6.27917C6.26333 4.23929 6.25049 4.2673 6.25049 4.30186V4.53985C6.25049 4.57441 6.26333 4.60243 6.27917 4.60243H6.75078C6.76663 4.60243 6.77947 4.57441 6.77947 4.53985V4.30186C6.77947 4.2673 6.76663 4.23929 6.75078 4.23929Z" fill="white" stroke="#EF2D28" stroke-width="0.0281498"/>
    </g>
  </g>
  <defs>
    <clipPath id="clip0_411_4227">
      <rect width="37" height="27.75" fill="white"/>
    </clipPath>
  </defs>
</svg>