<svg xmlns="http://www.w3.org/2000/svg" width="37" height="28" viewBox="0 0 37 28" fill="none">
  <g clipPath="url(#clip0_411_4154)">
    <mask id="mask0_411_4154" style="mask-type:luminance" maskUnits="userSpaceOnUse" x="0" y="0" width="37" height="28">
      <path d="M0.00170898 0H36.9981V27.75H0.00170898V0Z" fill="white"/>
    </mask>
    <g mask="url(#mask0_411_4154)">
      <path fill-rule="evenodd" clip-rule="evenodd" d="M-2.3125 0H39.3125V27.75H-2.3125V0Z" fill="#199D00"/>
      <path fill-rule="evenodd" clip-rule="evenodd" d="M8.17494 7.8643C8.13158 8.51469 8.06654 9.65288 8.62479 9.77212C9.29144 9.83716 8.92289 8.64477 9.16678 8.42798C9.21014 8.31958 9.29144 8.31958 9.29686 8.45508V9.4686C9.29686 9.7938 9.51366 9.89135 9.67625 9.95639C9.84969 9.94555 9.96893 9.95639 10.034 10.119L10.1207 11.8696C10.1207 11.8696 10.5218 11.9889 10.5434 10.8886C10.5597 10.2382 10.4134 9.70166 10.5001 9.577C10.5001 9.45234 10.6627 9.44692 10.7711 9.50654C10.9445 9.62578 11.0204 9.77754 11.2914 9.72334C11.7033 9.6041 11.9526 9.40356 11.958 9.08921C11.9499 8.78028 11.8856 8.47541 11.7683 8.1895C11.79 8.1353 11.6925 7.98896 11.7141 7.93476C11.7846 8.054 11.8984 8.04316 11.9201 7.93476C11.8496 7.70713 11.7412 7.48491 11.5678 7.39277C11.4215 7.26269 11.2047 7.28437 11.1342 7.55537C11.0909 7.8643 11.2426 8.22744 11.4648 8.53095C11.5136 8.64477 11.5786 8.83989 11.5515 9.01333C11.4323 9.08379 11.3131 9.05127 11.2101 8.94829C11.2101 8.94829 10.8849 8.70439 10.8849 8.64477C10.9716 8.09194 10.9012 8.0269 10.8524 7.86972C10.8199 7.65835 10.7169 7.58789 10.6356 7.44697C10.5543 7.36025 10.4459 7.36025 10.3917 7.44697C10.2453 7.69629 10.3158 8.23286 10.4188 8.47675C10.4947 8.69897 10.6085 8.83989 10.5543 8.83989C10.5109 8.96455 10.4188 8.93203 10.3483 8.78569C10.269 8.47772 10.2307 8.16062 10.2345 7.84262C10.2074 7.59331 10.1749 7.06216 10.0069 6.92124C9.90931 6.79116 9.76297 6.8562 9.70877 6.97544C9.69446 7.21757 9.6999 7.46046 9.72503 7.70171C9.83343 8.10278 9.87137 8.4605 9.92557 8.86699C9.94183 9.4144 9.61122 9.10547 9.62748 8.82905C9.69858 8.48155 9.69303 8.12272 9.61122 7.77758C9.55702 7.63667 9.4974 7.60415 9.3619 7.62583C9.25892 7.62583 8.99334 7.91308 8.91747 8.40088C8.91747 8.40088 8.85243 8.65019 8.82533 8.87241C8.78739 9.12173 8.62479 9.306 8.50555 8.83989C8.40799 8.49843 8.34295 7.66919 8.18036 7.8643H8.17494Z" fill="white"/>
      <path fill-rule="evenodd" clip-rule="evenodd" d="M9.99072 10.5255L8.25635 11.3602C8.27261 10.9645 9.07476 10.2545 9.62759 10.2491C9.97988 10.2545 9.89316 10.3846 9.9853 10.5255H9.99072Z" fill="white"/>
      <path fill-rule="evenodd" clip-rule="evenodd" d="M9.68176 11.0675C8.77121 13.4251 11.8226 13.7558 12.1641 11.165C12.1966 11.0566 12.3267 10.9537 12.3484 11.1271C12.2779 13.4739 9.98527 13.6311 9.59504 12.894C9.50324 12.6404 9.45735 12.3724 9.45954 12.1027C9.40534 11.642 9.16144 11.8209 9.1235 12.2761C9.08556 12.5309 9.0964 12.6013 9.0964 12.8452C9.21564 14.6988 12.1695 13.9021 12.6519 12.3737C12.9066 11.5282 12.6085 10.9049 12.744 10.9049C13.0367 11.2192 13.4486 10.9482 13.5407 10.8398C13.5787 10.7856 13.6762 10.7477 13.7413 10.8182C13.9689 10.9808 14.37 10.9049 14.4567 10.6176C14.5055 10.3304 14.5434 10.0377 14.5543 9.7396C14.3646 9.7938 14.2291 9.83174 14.2128 9.91304L14.1749 10.1624C14.1586 10.2437 14.0014 10.2437 13.9906 10.1407C13.9201 9.81548 13.6275 9.77754 13.4486 10.2762C13.3348 10.3737 13.118 10.3954 13.0963 10.2491C13.1234 9.91304 12.9879 9.86968 12.7169 10.0269L12.4568 8.06485C12.5652 8.06485 12.6736 8.14615 12.7765 8.01607C12.6681 7.66377 12.4242 6.94834 12.2887 6.89414C12.2291 6.81826 12.1749 6.86704 12.0882 6.88872C11.9473 6.93208 11.8172 7.05132 11.8606 7.2898C12.0232 8.30874 12.1316 9.08379 12.2996 10.1082C12.3267 10.222 12.2291 10.3792 12.099 10.3629C11.8822 10.2166 11.828 9.91846 11.4487 9.9293C11.1777 9.9293 10.8741 10.2274 10.8362 10.5092C10.7874 10.7369 10.7712 10.9808 10.8362 11.1759C11.0259 11.4035 11.2535 11.3818 11.4541 11.3331C11.6167 11.2626 11.7522 11.1 11.8118 11.1379C11.8497 11.1867 11.8172 11.7287 11.0367 12.1406C10.5652 12.3574 10.1858 12.4008 9.98527 12.016C9.86061 11.7721 9.99611 10.8561 9.68176 11.0675Z" fill="white"/>
      <path fill-rule="evenodd" clip-rule="evenodd" d="M13.568 8.67188C13.7468 8.60684 14.614 7.60957 14.614 7.60957L14.4839 7.50117C14.4352 7.46323 14.4406 7.41988 14.4839 7.38194C14.7007 7.25186 14.6303 6.98086 14.5219 6.85078C14.4483 6.81491 14.3673 6.79672 14.2855 6.79766C14.2036 6.7986 14.1231 6.81865 14.0504 6.8562C13.8986 7.00254 13.8661 7.2356 13.9853 7.37652C14.0991 7.43072 14.2129 7.54995 14.1371 7.61499C13.7794 7.99439 12.8092 8.6502 12.923 8.67188C12.9447 8.7044 13.5463 8.7044 13.5626 8.67188H13.568ZM8.31066 12.1948C7.98546 12.7151 7.95836 13.4902 8.13722 13.7232C8.23478 13.8316 8.39195 13.8804 8.50577 13.8425C8.71173 13.7558 8.80387 13.3384 8.75509 13.1921C8.68463 13.0837 8.63043 13.0674 8.55997 13.1542C8.41905 13.4468 8.35943 13.2463 8.34317 13.0837C8.32764 12.8083 8.34218 12.5321 8.38653 12.2599C8.42447 12.0322 8.38653 12.0973 8.31066 12.1948ZM22.2453 11.3656C21.9309 10.6827 21.4919 10.0106 21.3564 9.75586C20.934 9.08815 20.4856 8.43726 20.0123 7.80469C19.6762 7.40362 20.5651 7.97271 19.9039 7.17056L19.4215 6.76407C19.3131 6.68819 19.0529 6.54727 19.0096 6.7749C18.9879 6.98086 18.9987 7.08926 19.0313 7.25728C19.0584 7.36568 19.221 7.55537 19.3023 7.66377C20.4134 9.13553 21.3893 10.7046 22.2182 12.352C22.3591 12.2815 22.3266 11.4794 22.2453 11.3656Z" fill="white"/>
      <path fill-rule="evenodd" clip-rule="evenodd" d="M20.8632 13.6311C20.7981 13.7016 21.0149 13.9997 21.2968 13.9997C21.7629 13.9455 22.1748 13.6853 22.5542 12.9916C22.7084 12.7608 22.8067 12.4973 22.8414 12.2219C22.8874 10.9062 22.7819 9.58954 22.5271 8.2979C22.5108 8.1895 22.5271 8.05942 22.5379 8.0269C22.5705 7.98896 22.6734 8.0269 22.7276 7.93476C22.8089 7.85347 22.5108 7.17598 22.3482 6.92124C22.294 6.802 22.2669 6.72612 22.1694 6.93208C22.0517 7.15934 21.9956 7.41349 22.0068 7.66919C22.229 9.21387 22.2995 10.5634 22.4404 12.1081C22.4566 12.2599 22.435 12.4767 22.332 12.5634C21.923 13.0187 21.4225 13.3826 20.8632 13.6311ZM27.1774 13.6257C26.8414 13.8208 26.8414 14.043 27.1123 14.0484C27.5785 13.9942 28.1313 13.9563 28.5107 13.3818C28.6447 13.1112 28.7222 12.8161 28.7383 12.5146C28.8066 11.2191 28.721 9.92013 28.4836 8.64477C28.4727 8.53638 28.424 8.28164 28.4402 8.24912C28.4727 8.17324 28.6245 8.25454 28.6787 8.16782C28.7546 8.08652 28.283 7.47949 28.115 7.21934C28.0608 7.1001 28.0392 7.02422 27.9362 7.23017C27.827 7.45952 27.7929 7.71743 27.8386 7.96728C28.0879 9.64746 28.2722 10.9049 28.3101 12.3899C28.2885 12.5309 28.283 12.6067 28.218 12.7856C28.0717 12.9699 27.9091 13.2083 27.7573 13.3222C27.6056 13.4306 27.2804 13.539 27.1774 13.6257Z" fill="white"/>
      <path fill-rule="evenodd" clip-rule="evenodd" d="M27.4267 12.1244C27.4267 11.7287 27.4321 11.3927 27.4213 11.0946C27.4178 10.8421 27.3624 10.5931 27.2587 10.3629C27.1611 10.1407 27.2207 9.96182 27.1719 9.72334C27.1286 9.48487 27.1394 9.12715 27.0744 8.85073C27.0527 8.74234 26.9985 8.39004 27.0148 8.3521C27.0419 8.27622 27.1448 8.3521 27.199 8.26538C27.2749 8.18408 26.928 7.2898 26.7546 7.03506C26.695 6.92124 26.5757 6.95918 26.4403 7.14346C26.3048 7.26812 26.3535 7.54453 26.4077 7.81011C26.7383 9.56074 26.9931 11.1488 26.9389 12.8127C26.9172 12.9536 27.4267 12.3899 27.4267 12.1244ZM24.9498 9.9564C24.7384 9.94556 24.2994 9.53906 24.1693 9.30601C24.148 9.24905 24.1389 9.18825 24.1427 9.12755C24.1464 9.06686 24.1629 9.00763 24.191 8.95371C24.2723 8.89951 24.3915 8.84531 24.4837 8.89951C24.4837 8.89951 24.5758 9.02959 24.5595 9.04585C24.6679 9.10005 24.7221 9.07295 24.733 9.02417C24.7384 8.94287 24.7005 8.89409 24.7005 8.80738C24.7492 8.55806 25.0257 8.52012 25.1341 8.6773C25.2099 8.77486 25.2424 8.97539 25.2479 9.11089C25.2479 9.18135 25.1395 9.10005 25.069 9.11089C25.0094 9.13257 24.9931 9.20845 24.9877 9.27349C24.9769 9.45235 24.9552 9.7396 24.9498 9.95098V9.9564ZM21.0583 12.558C21.1125 12.0268 21.0366 11.0783 21.0312 10.764C21.0022 9.95551 20.9353 9.14886 20.8306 8.34668C20.7656 7.89141 21.0149 8.39546 20.9824 8.12988C20.9011 7.68003 20.6518 7.3711 20.3537 6.9646C20.2615 6.8291 20.2615 6.802 20.1152 6.99712C19.9526 7.36026 20.0935 7.61499 20.1369 7.90225C20.3483 8.83448 20.4729 9.69082 20.5325 10.5418C20.5949 11.4257 20.6022 12.3127 20.5542 13.1975C20.7168 13.2029 20.9661 12.9428 21.0583 12.558Z" fill="white"/>
      <path fill-rule="evenodd" clip-rule="evenodd" d="M28.1474 11.707C27.7735 11.0783 27.2152 10.4063 27.0635 10.1515C26.5609 9.44968 26.033 8.76632 25.4808 8.10279C25.0201 7.61499 25.6976 8.02149 25.3941 7.64209C25.1394 7.36568 25.0689 7.27354 24.8467 7.10552C24.7383 7.03506 24.6733 6.89956 24.6299 7.13262C24.6126 7.33449 24.609 7.53729 24.6191 7.73965C24.6191 7.83179 24.7166 8.01065 24.8034 8.11905C25.9253 9.50113 27.1556 10.9103 28.142 12.6826C28.2829 12.6122 28.2342 11.8154 28.142 11.707H28.1474Z" fill="white"/>
      <path fill-rule="evenodd" clip-rule="evenodd" d="M11.2699 10.5526C11.2428 10.6014 11.1832 10.661 11.2048 10.7206C11.2428 10.7748 11.2807 10.7911 11.3458 10.7911C11.4054 10.7911 11.4921 10.8073 11.5084 10.7748C11.5409 10.7369 11.5626 10.6664 11.5409 10.5959C11.4758 10.4333 11.3024 10.4984 11.2699 10.5526Z" fill="#1BA400"/>
      <path fill-rule="evenodd" clip-rule="evenodd" d="M23.8224 19.6472C24.321 19.6689 24.6462 19.6743 25.0853 19.7231L25.6056 19.6689C26.1801 19.6147 26.2018 20.4873 26.2018 20.4873C26.2018 21.0022 26.0012 21.0293 25.7465 21.0835C25.6001 21.1052 25.5297 20.9968 25.4484 20.8884C25.3258 20.9277 25.1953 20.9351 25.069 20.9101C24.8576 20.8992 24.6517 20.8992 24.4457 20.883C24.2289 20.8667 24.1097 20.9101 23.8875 20.8884C23.8441 20.9588 23.7791 21.0564 23.649 21.0293C23.5406 21.013 23.4051 20.7041 23.443 20.4602C23.5243 20.2868 23.4972 20.3464 23.4972 20.2705C21.4593 20.2163 19.4052 20.1242 17.4106 20.1513C15.8497 20.1567 14.3104 20.2217 12.7658 20.2868C11.9419 20.2759 11.3132 20.1459 10.8796 19.5117C10.923 19.5117 12.9826 19.6255 13.5842 19.5876C14.6953 19.5768 15.7142 19.4846 16.847 19.4521C19.08 19.49 21.2967 19.49 23.5297 19.6472C23.3129 19.5009 23.3129 19.1594 23.6381 19.0727C23.6652 19.051 23.6815 19.2407 23.7303 19.2353C23.9958 19.219 23.8766 19.5768 23.8224 19.6472ZM14.847 7.33316C14.511 8.2979 15.0421 9.36021 15.4107 9.25723C15.6817 9.36563 15.8443 8.85615 15.9527 8.30332C16.034 8.14614 16.0882 8.12988 16.1261 8.21118C16.1153 8.94829 16.1803 9.11631 16.37 9.33853C16.7928 9.66372 17.1451 9.38189 17.1722 9.35479L17.4974 9.02417C17.5732 8.94287 17.6708 8.94287 17.7738 9.00791C17.8768 9.10005 17.8605 9.25723 18.0773 9.36563C18.2616 9.4415 18.6464 9.38731 18.7385 9.23013C18.8578 9.01875 18.8903 8.94829 18.9445 8.87241C19.0312 8.75859 19.1775 8.80737 19.1775 8.84531C19.1613 8.91035 19.0746 8.96997 19.1342 9.08921C19.2426 9.16509 19.2643 9.11631 19.3239 9.10005C19.5407 8.99165 19.7033 8.52554 19.7033 8.52554C19.7087 8.3521 19.6111 8.36294 19.5461 8.4063L19.3781 8.52012C19.2697 8.53638 19.0691 8.60684 18.9662 8.44966C18.8632 8.26538 18.8632 7.99981 18.7873 7.81011C18.7873 7.79927 18.6464 7.51201 18.7765 7.49575C18.8415 7.50659 18.977 7.54453 18.9987 7.43071C19.0637 7.3169 18.8578 6.99712 18.7114 6.83452C18.5868 6.69902 18.4133 6.68276 18.2453 6.82368C18.1261 6.93208 18.1423 7.05132 18.1207 7.16514C18.1001 7.2467 18.0992 7.33199 18.118 7.41396C18.1369 7.49594 18.1749 7.57227 18.2291 7.63667C18.3483 7.86431 18.5597 8.1624 18.4892 8.58516C18.4892 8.58516 18.3646 8.78027 18.1478 8.75317C18.0556 8.73691 17.9093 8.69898 17.8334 8.11362C17.7738 7.68003 17.8442 7.06216 17.66 6.7749C17.5895 6.59605 17.5407 6.42803 17.3781 6.72612C17.3348 6.84536 17.1451 7.02422 17.2806 7.38735C17.4088 7.71459 17.4462 8.07038 17.389 8.41714C17.3077 8.53638 17.2914 8.57432 17.1884 8.68814C17.0475 8.85073 16.8903 8.80737 16.7711 8.74775C16.6627 8.6773 16.576 8.63936 16.5218 8.39546C16.5326 8.01607 16.5543 7.39277 16.4838 7.2627C16.3809 7.05674 16.2128 7.13262 16.1424 7.19766C15.82 7.55583 15.6041 7.99698 15.5191 8.47134C15.4215 8.78569 15.3186 8.69356 15.2481 8.5689C15.0747 8.4063 15.0584 7.12178 14.847 7.33316Z" fill="white"/>
      <path fill-rule="evenodd" clip-rule="evenodd" d="M15.866 9.43608C16.0231 9.32769 15.9527 9.25181 16.1803 9.47944C16.4741 9.99932 16.6447 10.5797 16.6789 11.1759C16.6681 11.3168 16.7657 11.4035 16.8144 11.371C16.8361 11.0458 17.6329 10.5905 18.3645 10.5255C18.4729 10.4984 18.4187 10.287 18.435 10.1786C18.3916 9.77212 18.6626 9.40356 19.042 9.37646C19.5623 9.45234 19.7358 9.72876 19.7466 10.1461C19.687 10.9591 18.8415 11.0946 18.37 11.1596C18.2995 11.1867 18.267 11.2192 18.37 11.2572L20.3537 11.268L20.4566 11.3222C20.4675 11.3764 20.4241 11.3331 20.3482 11.4631C20.2391 11.6548 20.1708 11.8671 20.1477 12.0864C19.5569 12.2815 18.9445 12.3574 18.3266 12.4387C18.1098 12.5471 18.0014 12.6935 18.0448 12.8561C18.1206 13.0349 18.5976 13.2192 18.5976 13.2246C18.6897 13.2788 18.7927 13.4143 18.5705 13.6907C17.6058 13.6474 16.8524 13.2354 16.5922 12.6555C16.5163 12.5959 16.4296 12.6555 16.3754 12.7314C15.996 13.2192 15.6275 13.6528 14.9825 13.8913C14.6031 13.9888 14.2075 13.8316 14.0232 13.5823C13.8985 13.436 13.9039 13.2788 13.8606 13.2463C13.6492 13.3384 11.8606 14.0972 12.0883 13.7395C12.5219 13.2788 13.2807 12.9319 13.9419 12.4767C13.9907 12.3195 14.0774 11.7992 14.3375 11.6312C14.3538 11.6312 14.2996 11.9347 14.305 12.0647C14.305 12.1731 14.2942 12.2111 14.3159 12.184C14.3646 12.1569 15.1668 11.5228 15.2372 11.3276C15.3131 11.2192 15.2535 10.9374 15.2535 10.9266C15.1017 10.5363 14.8904 10.5038 14.8145 10.3087C14.744 10.054 14.7766 9.76128 14.9229 9.67456C15.053 9.56074 15.2047 9.57158 15.3511 9.70166C15.5137 9.848 15.6546 10.1353 15.6979 10.3466C15.6708 10.4279 15.4811 10.2924 15.4269 10.3304C15.5313 10.4503 15.6006 10.5965 15.6275 10.7531C15.7359 11.1976 15.7034 11.371 15.595 11.6583C15.2372 12.4116 14.782 12.6338 14.3809 12.9157C14.3701 12.9157 14.3646 13.1054 14.511 13.2083C14.5652 13.2625 14.7766 13.2896 15.0204 13.2083C15.5415 12.919 15.9628 12.4788 16.2291 11.9455C16.2751 11.5397 16.2307 11.1288 16.099 10.7423C15.9418 10.3792 15.7576 9.86426 15.7576 9.85342C15.7521 9.62578 15.7684 9.5499 15.866 9.43608ZM10.6737 7.34399C10.9013 7.45239 11.3349 7.40361 11.3132 7.03506L11.3024 6.86704C11.259 6.75864 11.1289 6.78574 11.1018 6.89414C11.091 6.93208 11.1181 6.9917 11.0856 7.00796C11.0639 7.02964 10.9934 7.0188 10.9934 6.91582C10.9934 6.8833 10.9718 6.85078 10.9555 6.8291C10.9447 6.81826 10.9338 6.81826 10.9067 6.81826C10.8742 6.81826 10.8742 6.82368 10.8579 6.85078C10.8525 6.87788 10.8417 6.90498 10.8417 6.9375C10.8417 6.97544 10.82 6.98628 10.7983 6.9917C10.7658 6.9917 10.7712 6.9917 10.7441 6.98086C10.7333 6.9646 10.717 6.95918 10.717 6.92666L10.7008 6.83994C10.6899 6.82368 10.6683 6.81284 10.6466 6.80742C10.5219 6.80742 10.5111 6.95376 10.5219 7.00796C10.5111 7.0188 10.5057 7.27354 10.6737 7.34399Z" fill="white"/>
      <path fill-rule="evenodd" clip-rule="evenodd" d="M17.3673 10.1732C17.595 10.2816 18.1424 10.222 18.0069 9.86968L17.996 9.69624C17.9472 9.58784 17.8226 9.61494 17.7955 9.72876C17.7847 9.76128 17.8118 9.8209 17.7738 9.83716C17.7576 9.85884 17.6817 9.848 17.6871 9.75044C17.6871 9.71792 17.6654 9.67998 17.6492 9.6583C17.6329 9.65288 17.6275 9.64746 17.595 9.64746C17.5679 9.64746 17.5679 9.6583 17.5516 9.6854C17.5408 9.7125 17.5353 9.7396 17.5353 9.77212C17.5299 9.80464 17.5137 9.81548 17.4866 9.82632C17.4595 9.82632 17.4649 9.82632 17.4432 9.81006C17.4269 9.7938 17.4107 9.78838 17.4107 9.76128L17.3944 9.67456C17.3836 9.6583 17.3619 9.64746 17.3402 9.64204C17.2156 9.64204 17.2047 9.78296 17.2101 9.83716C17.2047 9.848 17.1993 10.1082 17.3727 10.1732H17.3673ZM21.2697 9.00249C21.4973 9.11089 21.9255 9.06211 21.9092 8.69897L21.8984 8.52554C21.8496 8.41714 21.7249 8.44424 21.6978 8.55264C21.687 8.59058 21.7141 8.65019 21.6762 8.67187C21.6599 8.68813 21.584 8.67729 21.5894 8.57432C21.5894 8.5418 21.5678 8.50928 21.5515 8.4876C21.5352 8.47676 21.5298 8.47676 21.4973 8.47676C21.4702 8.47676 21.4702 8.4876 21.4539 8.5147L21.4377 8.596C21.4323 8.63394 21.416 8.6502 21.3889 8.6502C21.3618 8.6502 21.3672 8.65019 21.3455 8.63935C21.3293 8.62309 21.313 8.61768 21.313 8.59058C21.313 8.56348 21.3076 8.52012 21.2968 8.49844C21.2859 8.48218 21.2642 8.47676 21.2426 8.47134C21.1179 8.47134 21.1071 8.61225 21.1125 8.66645C21.1071 8.67729 21.1016 8.93203 21.2751 9.00249H21.2697ZM23.2913 11.9455C22.8956 12.3954 23.0691 13.1379 23.1612 13.3005C23.2913 13.5606 23.3943 13.7287 23.649 13.8587C23.8821 14.0268 24.0663 13.9238 24.1639 13.8045C24.397 13.5606 24.4024 12.9374 24.5108 12.8181C24.5867 12.5905 24.7818 12.6284 24.8739 12.7314C24.9601 12.8538 25.0757 12.9525 25.2099 13.0187C25.4267 13.2083 25.6869 13.2463 25.9471 13.0729C26.1205 12.9699 26.2343 12.8452 26.3373 12.5905C26.4457 12.287 26.3915 10.8778 26.3644 10.0431L26.1368 8.87783C26.1368 8.86699 26.1097 8.325 26.0826 8.20034C26.0826 8.14614 26.0663 8.12988 26.1205 8.1353C26.1801 8.1895 26.1855 8.1895 26.2289 8.20576C26.2831 8.2166 26.3373 8.11362 26.2993 8.0269L25.7574 7.0188C25.714 6.97544 25.6544 6.93208 25.5839 7.02964C25.5424 7.06727 25.5093 7.11331 25.4868 7.1647C25.4644 7.21609 25.4532 7.27167 25.4538 7.32773C25.4701 7.56621 25.508 7.81011 25.5243 8.04858L25.7411 9.27349C25.8116 10.1407 25.8278 10.8561 25.8983 11.7287C25.8874 12.0973 25.7736 12.417 25.6652 12.4658C25.6652 12.4658 25.5026 12.558 25.3942 12.455C25.3129 12.4225 24.9931 11.9184 24.9931 11.9184C24.8305 11.7721 24.7222 11.81 24.6083 11.9184C24.2831 12.2328 24.1422 12.8073 23.92 13.2083C23.8658 13.3005 23.7032 13.3709 23.5298 13.2029C23.0853 12.5905 23.3455 11.7233 23.2913 11.9455ZM21.3726 6.86704C21.5786 6.94834 21.7195 7.36567 21.6762 7.57163C21.6328 7.81553 21.5244 8.08652 21.4485 8.054C21.3618 8.02148 21.5027 7.80469 21.4214 7.57705C21.3781 7.42529 21.0962 7.1543 21.1287 7.07842C21.0745 6.9104 21.248 6.83452 21.3726 6.86162V6.86704Z" fill="white"/>
      <path fill-rule="evenodd" clip-rule="evenodd" d="M23.9525 12.1948C23.9905 11.6962 23.92 11.3927 23.9092 11.1C23.8983 10.8073 23.5785 8.57432 23.5135 8.35752C23.4322 7.93477 23.8224 8.30332 23.7791 8.05401C23.6436 7.75049 23.313 7.30064 23.21 7.03506C23.1449 6.92666 23.172 6.81826 23.0311 7.00796C22.9098 7.34056 22.8671 7.69674 22.9065 8.04859C23.2425 9.79922 23.584 11.2518 23.5298 12.9157C23.6924 12.9157 23.8712 12.5525 23.9525 12.1948ZM27.4429 7.57163C27.6326 7.66377 27.741 8.18408 27.7194 8.33042C27.6814 8.60142 27.5839 8.89409 27.5134 8.85615C27.4321 8.82363 27.5297 8.45508 27.4917 8.34126C27.4484 8.17866 27.1936 7.88599 27.2207 7.79927C27.1665 7.61499 27.3291 7.53911 27.4429 7.57163ZM13.5842 11.2518C13.7631 11.3222 13.8715 11.7016 13.8552 11.81C13.8118 12.0105 13.7197 12.2273 13.6492 12.1948C13.5788 12.1731 13.6655 11.9022 13.633 11.8154C13.6167 11.6149 13.3674 11.5065 13.3728 11.4198C13.3295 11.2572 13.4812 11.2301 13.5896 11.2518H13.5842Z" fill="white"/>
      <path fill-rule="evenodd" clip-rule="evenodd" d="M17.8985 11.8263C18.1261 11.8371 18.2399 12.0214 18.0285 12.0973C17.8118 12.1677 17.6112 12.2273 17.6058 12.5309C17.6871 12.9645 17.4974 12.8127 17.389 12.7585C17.2589 12.6609 16.8904 12.4333 16.8362 11.9455C16.8307 11.8317 16.9229 11.7287 17.0692 11.7287C17.286 11.7883 17.6112 11.7938 17.8985 11.8263Z" fill="#1B9D00"/>
      <path fill-rule="evenodd" clip-rule="evenodd" d="M8.82014 6.74239C9.0803 6.81826 9.09656 7.2085 9.0803 7.32232C9.04236 7.52827 8.95022 7.75049 8.88518 7.72339C8.8093 7.69629 8.88518 7.41446 8.84724 7.32774C8.8093 7.2085 8.58708 6.98086 8.60876 6.91582C8.55998 6.78033 8.71716 6.71529 8.82014 6.74239ZM14.0178 8.56348C13.8119 8.67188 13.736 8.99707 13.8607 9.19219C13.9799 9.35479 14.1642 9.29517 14.1859 9.29517C14.3864 9.31685 14.5056 8.92119 14.5056 8.92119C14.5056 8.92119 14.5111 8.8128 14.278 9.02417C14.175 9.04043 14.1696 9.00249 14.1425 8.94829C14.1177 8.84511 14.1272 8.73665 14.1696 8.63936C14.2075 8.5418 14.1317 8.49844 14.0178 8.56348ZM15.5354 6.59063C15.427 6.66109 15.2265 6.87246 15.2211 7.11094C15.2156 7.24644 15.1885 7.24644 15.2753 7.32774C15.3457 7.4253 15.4053 7.41988 15.5354 7.34942C15.5678 7.32901 15.5957 7.3021 15.6171 7.27037C15.6386 7.23865 15.6532 7.20282 15.6601 7.16514C15.6926 7.01338 15.4975 7.24102 15.4758 7.06758C15.4324 6.90498 15.5571 6.83994 15.6763 6.68819C15.6763 6.57979 15.6763 6.50933 15.53 6.59063H15.5354ZM16.7495 6.80742C16.7017 7.00478 16.6727 7.20622 16.6628 7.40904C16.6302 7.56079 16.8254 7.62583 16.9067 7.43072C17.0367 7.07842 17.0367 6.92666 17.0476 6.78033C17.0096 6.54727 16.8525 6.55269 16.7495 6.80742ZM24.4458 10.726C24.4675 10.6989 25.5298 9.94556 25.5298 9.94556C25.6382 9.90762 25.6111 10.3358 25.5623 10.3304C25.2328 10.6479 24.8539 10.9097 24.4404 11.1054C24.3862 11.1434 24.3374 10.8182 24.4404 10.726H24.4458ZM25.4051 10.7152C25.5948 10.8073 25.6707 11.3547 25.649 11.5011C25.649 11.7938 25.4701 12.0214 25.3943 11.9889C25.3184 11.9509 25.4051 11.6257 25.3672 11.5119C25.3238 11.3493 25.1666 11.0512 25.1937 10.9645C25.1395 10.7802 25.2913 10.6827 25.4105 10.7152H25.4051ZM19.118 13.0674C19.2059 12.9648 19.3081 12.8754 19.4215 12.8019C19.5299 12.7477 19.6275 12.8452 19.622 12.8398C19.6383 12.9482 19.557 13.0403 19.5841 13.1813C19.6058 13.2355 19.622 13.3005 19.725 13.2788C19.893 13.1433 20.0502 13.1325 20.2128 13.1271C20.3483 13.1325 20.3537 13.3547 20.267 13.3547C19.9581 13.4197 19.8226 13.5064 19.6004 13.5877C19.492 13.6528 19.4052 13.5715 19.4052 13.5661C19.4052 13.5606 19.3456 13.5064 19.3836 13.3655C19.3944 13.2571 19.351 13.1921 19.2535 13.2029C19.1885 13.2463 19.1234 13.268 19.0909 13.1867C19.0746 13.1325 19.0692 13.1 19.118 13.0674ZM26.5216 13.3601C26.565 13.4143 26.5975 13.4685 26.5162 13.5661L26.3156 13.7395C26.2831 13.7937 26.2614 13.8913 26.3698 13.9184C26.565 13.9726 27.0202 13.6745 27.0202 13.669C27.0961 13.6148 27.0744 13.5064 27.0636 13.5064C27.0202 13.4577 26.9227 13.4902 26.8576 13.4793C26.8251 13.4793 26.7221 13.4685 26.7709 13.3709C26.8073 13.3231 26.8365 13.2701 26.8576 13.2138C26.8847 13.1487 26.8576 13.1054 26.7492 13.0674C26.6354 13.0458 26.5866 13.0566 26.462 13.0674C26.3969 13.0783 26.3753 13.1108 26.359 13.1921C26.3644 13.3168 26.4403 13.3113 26.5216 13.3547V13.3601Z" fill="white"/>
      <path fill-rule="evenodd" clip-rule="evenodd" d="M19.1558 10.2816C19.1287 10.3358 19.0312 10.3358 18.939 10.2816C18.8469 10.2274 18.7927 10.1407 18.8252 10.0919C18.8577 10.0431 18.9499 10.0431 19.042 10.0919C19.1342 10.1407 19.1829 10.2328 19.1558 10.2816ZM14.3321 7.37651C14.2779 7.39277 14.202 7.34399 14.1695 7.26811C14.137 7.19224 14.1533 7.1272 14.2075 7.11094C14.2617 7.09468 14.3321 7.14888 14.3701 7.21933C14.408 7.28979 14.3863 7.36567 14.3267 7.38193L14.3321 7.37651Z" fill="#259F00"/>
      <path fill-rule="evenodd" clip-rule="evenodd" d="M23.8766 20.3247C24.3861 20.3464 24.8631 20.3247 25.3671 20.3518C25.4593 20.4331 25.3942 20.6228 25.3346 20.612L24.9118 20.5957C24.9064 20.4331 24.4945 20.4602 24.5054 20.6011C24.2831 20.6282 24.0826 20.5957 23.855 20.5849C23.7899 20.5036 23.8008 20.3572 23.8766 20.3247Z" fill="#209000"/>
    </g>
  </g>
  <defs>
    <clipPath id="clip0_411_4154">
      <rect width="37" height="27.75" fill="white"/>
    </clipPath>
  </defs>
</svg>