<svg xmlns="http://www.w3.org/2000/svg" width="20" height="20" viewBox="0 0 20 20" fill="none">
  <g clip-path="url(#clip0_272_18773)">
    <path d="M3.3335 5.83341C3.3335 5.39139 3.50909 4.96746 3.82165 4.6549C4.13421 4.34234 4.55814 4.16675 5.00016 4.16675H15.0002C15.4422 4.16675 15.8661 4.34234 16.1787 4.6549C16.4912 4.96746 16.6668 5.39139 16.6668 5.83341V15.8334C16.6668 16.2754 16.4912 16.6994 16.1787 17.0119C15.8661 17.3245 15.4422 17.5001 15.0002 17.5001H5.00016C4.55814 17.5001 4.13421 17.3245 3.82165 17.0119C3.50909 16.6994 3.3335 16.2754 3.3335 15.8334V5.83341Z" stroke="black" stroke-opacity="0.5" stroke-width="0.833333" stroke-linecap="round" stroke-linejoin="round"/>
    <path d="M13.3335 2.5V5.83333" stroke="black" stroke-opacity="0.5" stroke-width="0.833333" stroke-linecap="round" stroke-linejoin="round"/>
    <path d="M6.6665 2.5V5.83333" stroke="black" stroke-opacity="0.5" stroke-width="0.833333" stroke-linecap="round" stroke-linejoin="round"/>
    <path d="M3.3335 9.16675H16.6668" stroke="black" stroke-opacity="0.5" stroke-width="0.833333" stroke-linecap="round" stroke-linejoin="round"/>
    <path d="M6.6665 12.5H8.33317V14.1667H6.6665V12.5Z" stroke="black" stroke-opacity="0.5" stroke-width="0.833333" stroke-linecap="round" stroke-linejoin="round"/>
  </g>
  <defs>
    <clipPath id="clip0_272_18773">
      <rect width="20" height="20" fill="white"/>
    </clipPath>
  </defs>
</svg>