<svg width="20" height="20" viewBox="0 0 20 20" fill="none" xmlns="http://www.w3.org/2000/svg">
<g clip-path="url(#clip0_272_11437)">
<path d="M15.8334 11.6668C16.1631 11.6668 16.4853 11.5691 16.7594 11.3859C17.0334 11.2028 17.2471 10.9425 17.3732 10.638C17.4994 10.3334 17.5324 9.99831 17.4681 9.67501C17.4037 9.35171 17.245 9.05474 17.0119 8.82165C16.7788 8.58857 16.4819 8.42983 16.1586 8.36552C15.8353 8.30121 15.5002 8.33422 15.1956 8.46036C14.8911 8.58651 14.6308 8.80013 14.4476 9.07421C14.2645 9.3483 14.1667 9.67053 14.1667 10.0002" stroke="black" stroke-opacity="0.5" stroke-linecap="round" stroke-linejoin="round"/>
<path d="M14.1667 13.3332C14.1667 13.6628 14.2645 13.985 14.4476 14.2591C14.6308 14.5332 14.8911 14.7468 15.1956 14.873C15.5002 14.9991 15.8353 15.0321 16.1586 14.9678C16.4819 14.9035 16.7788 14.7448 17.0119 14.5117C17.245 14.2786 17.4037 13.9816 17.4681 13.6583C17.5324 13.335 17.4994 12.9999 17.3732 12.6954C17.2471 12.3908 17.0334 12.1305 16.7594 11.9474C16.4853 11.7643 16.1631 11.6665 15.8334 11.6665" stroke="black" stroke-opacity="0.5" stroke-linecap="round" stroke-linejoin="round"/>
<path d="M3.33325 5V15" stroke="black" stroke-opacity="0.5" stroke-linecap="round" stroke-linejoin="round"/>
<path d="M10 5V15" stroke="black" stroke-opacity="0.5" stroke-linecap="round" stroke-linejoin="round"/>
<path d="M9.16675 15H10.8334" stroke="black" stroke-opacity="0.5" stroke-linecap="round" stroke-linejoin="round"/>
<path d="M2.5 15H4.16667" stroke="black" stroke-opacity="0.5" stroke-linecap="round" stroke-linejoin="round"/>
<path d="M3.33325 10H9.99992" stroke="black" stroke-opacity="0.5" stroke-linecap="round" stroke-linejoin="round"/>
<path d="M2.5 5H4.16667" stroke="black" stroke-opacity="0.5" stroke-linecap="round" stroke-linejoin="round"/>
<path d="M9.16675 5H10.8334" stroke="black" stroke-opacity="0.5" stroke-linecap="round" stroke-linejoin="round"/>
</g>
<defs>
<clipPath id="clip0_272_11437">
<rect width="20" height="20" fill="white"/>
</clipPath>
</defs>
</svg>
