<svg xmlns="http://www.w3.org/2000/svg" width="156" height="50" viewBox="0 0 156 50" fill="none">
  <g clip-path="url(#clip0_1353_357)">
    <path d="M33.6138 3.18265L36.5598 5.62306C36.1388 6.09456 35.7854 6.54663 35.5021 6.95467L32.3991 4.38342C32.0814 4.11917 31.6476 4.05311 31.2406 4.20467L19.4589 8.57902C19.2254 8.66581 19.0187 8.81865 18.8605 9.01943L1.25812 31.4041C1.04249 31.68 0.93532 32.0168 0.959562 32.3562C0.98508 32.6956 1.13563 32.9922 1.38572 33.1956L20.5625 48.7487C20.8139 48.9534 21.1341 49.0375 21.4633 48.9857C21.7938 48.9352 22.0949 48.7552 22.3118 48.4793L28.0585 41.1684H29.1953L23.1271 48.8873C22.2595 49.9909 20.7386 50.2254 19.7345 49.4106L0.931492 34.1619C0.446649 33.7668 0.151915 33.1891 0.105982 32.5324C0.058773 31.8756 0.265469 31.2202 0.685241 30.6852L18.4943 8.03755C18.8018 7.64507 19.205 7.34974 19.6579 7.18135L31.3682 2.8329C32.1592 2.53886 32.9988 2.66968 33.6138 3.18004V3.18265Z" fill="#24B098"/>
    <path d="M43.0643 12.4741L42.4544 17.3225L41.7935 21.3756L41.3571 20.8147H40.6732L41.3648 16.1826L41.7769 12.9106C41.8305 12.4831 41.6774 12.0751 41.3673 11.8173L36.8953 8.11268C37.1288 7.69429 37.4541 7.2189 37.8764 6.71631L42.2706 10.3575C42.8742 10.8562 43.1702 11.649 43.0655 12.4754L43.0643 12.4741Z" fill="#24B098"/>
    <path d="M35.2176 8.15542C35.016 8.65283 34.9637 9.12433 35.0607 9.56474C35.2712 10.5142 36.1018 10.9546 36.1363 10.9728L36.3327 11.0751L36.6147 9.78495L36.4182 9.78754C36.2192 9.79013 36.1197 9.69687 36.0954 9.48443C36.0801 9.34324 36.1018 9.16189 36.1592 8.95075C36.5879 7.36785 39.0696 4.03106 43.682 2.23961C47.4778 0.764227 48.8443 1.03625 49.3215 1.52329C49.7259 1.9365 49.532 2.56863 49.5103 2.63598C47.3859 6.86526 42.4864 8.78107 42.4367 8.8005L42.1432 8.91319L43.0045 9.61138L43.095 9.57381C46.2669 8.23573 48.7001 5.61008 48.7243 5.58288C50.1891 3.99868 50.8066 2.67096 50.5591 1.63469C50.2758 0.442982 48.9642 0.117852 48.9055 0.104899L48.8685 0.101013C41.971 0.230547 37.1455 4.99739 35.557 7.49998C35.4166 7.72277 35.3031 7.94039 35.2163 8.15412L35.2176 8.15542Z" fill="#24B098"/>
    <path d="M40.7804 12.8524L39.8069 20.8135H27.3911V20.8303H23.0875L20.3353 24.671L17.5819 20.8303H13.2502V34.5492H13.9379C13.5029 35.2228 13.2502 36.0259 13.2502 36.8899C13.2502 39.25 15.1424 41.1697 17.4671 41.1697H26.8131L21.5474 47.864C21.4939 47.9326 21.425 47.9534 21.388 47.9585C21.351 47.965 21.2808 47.965 21.217 47.9145L2.04142 32.3627C2.04142 32.3627 2.03249 32.3523 2.02738 32.3484L1.86279 32.2176L2.0108 32.0285C2.0108 32.0285 2.01335 32.0246 2.01463 32.022L19.6196 9.63474C19.6489 9.59717 19.6872 9.56997 19.7306 9.55313L31.5123 5.17878C31.5289 5.1723 31.5442 5.16842 31.5608 5.16712C31.6233 5.15676 31.6832 5.1736 31.7304 5.21246L34.3945 7.42101C34.3894 7.43137 34.3856 7.44044 34.3805 7.4508C34.3575 7.49743 34.3346 7.54406 34.3129 7.5907C33.1914 8.09976 32.4462 9.30961 32.5343 10.5583C32.6427 12.0855 33.9441 13.1399 35.4357 12.9093C36.0086 12.8213 36.5457 12.5518 36.9833 12.1347C37.0114 12.1088 37.0408 12.0803 37.0676 12.0531L37.0816 12.0402C37.5192 11.5855 37.8012 11.0195 37.9033 10.4249C37.9084 10.3964 37.9148 10.3692 37.9199 10.3407L40.7013 12.6464C40.7588 12.6943 40.7868 12.7707 40.7779 12.8511L40.7804 12.8524Z" fill="#FEDF00"/>
    <path d="M37.8675 35.4003C36.9757 35.4003 36.4487 36.0803 36.473 36.9262C36.4908 37.6257 36.8621 38.3731 37.8497 38.3731C38.8372 38.3731 39.2085 37.6192 39.22 36.921C39.2315 36.2099 38.8308 35.4197 37.8675 35.4016V35.4003Z" fill="#24B098"/>
    <path d="M22.5414 35.4003C21.6495 35.4003 21.1226 36.0803 21.1468 36.9262C21.1647 37.6257 21.5359 38.3731 22.5235 38.3731C23.511 38.3731 23.8823 37.6192 23.8938 36.921C23.9053 36.2099 23.5047 35.4197 22.5414 35.4016V35.4003Z" fill="#24B098"/>
    <path d="M33.1492 35.5155H31.9639V37.0233H33.1492C34.161 37.0233 34.1546 35.5155 33.1492 35.5155Z" fill="#24B098"/>
    <path d="M17.4673 33.9288C15.8571 33.9288 14.5505 35.2539 14.5505 36.8899C14.5505 38.5246 15.8558 39.8511 17.4673 39.8511H46.0348L48.7448 33.9288H17.4673ZM17.9125 39.1075C16.3559 39.1075 15.6976 38.0194 15.6912 36.9132C15.6848 35.8005 16.398 34.671 17.9125 34.671C18.4816 34.671 19.02 34.8899 19.4513 35.3213L18.9243 35.8381C18.6487 35.5648 18.2775 35.4365 17.9125 35.4365C16.9008 35.4365 16.4644 36.2021 16.4695 36.9132C16.4759 37.6179 16.8765 38.3536 17.9125 38.3536C18.2775 38.3536 18.6908 38.2021 18.9664 37.9223L19.5049 38.4754C19.0736 38.9068 18.5173 39.1075 17.9125 39.1075ZM22.5224 39.1075C21.05 39.1075 20.3674 38.0324 20.3674 36.9132C20.3674 35.57 21.3256 34.671 22.5403 34.671C23.9705 34.6827 24.6838 35.8018 24.671 36.908C24.6595 38.0078 23.9948 39.1075 22.5224 39.1075ZM29.6343 37.1995C29.6343 38.4573 28.8738 39.1023 27.82 39.1023C26.7661 39.1023 25.9584 38.4819 25.9584 37.1995V34.763H26.7431V37.1995C26.7431 37.965 27.1743 38.3718 27.8263 38.3718C28.4783 38.3718 28.8496 37.9288 28.8496 37.1995V34.763H29.6343V37.1995ZM33.1481 37.7591H31.9628V39.0117H31.173V34.7578C31.825 34.7578 32.4961 34.7513 33.1481 34.7513C35.2074 34.7513 35.2138 37.741 33.1481 37.7591ZM37.8473 39.1088C36.3749 39.1088 35.6923 38.0337 35.6923 36.9145C35.6923 35.5713 36.6505 34.6723 37.8652 34.6723C39.2954 34.684 40.0087 35.8031 39.9959 36.9093C39.9844 38.0091 39.3197 39.1088 37.8473 39.1088ZM44.3544 39.0117L42.128 36.1801V39.0117H41.3382V34.7578H41.9787L44.2051 37.6205V34.7578H44.9949V39.0117H44.3544Z" fill="#24B098"/>
    <path d="M26.1039 33.2293V22.149H23.7498L20.3355 26.9132L16.9212 22.149H14.5505V33.2293H16.6086V25.1723L20.0854 30H20.4912L24.0458 25.1878V33.2293H26.1039Z" fill="#FEDF00"/>
    <path d="M28.6926 33.2125H36.8622V31.1542H30.7354V28.6529H36.6441V26.706H30.7354V24.158H36.8622V22.1321H28.6926V33.2125Z" fill="#FEDF00"/>
    <path d="M48.5865 33.2124V22.1334H46.5284V29.5881L40.7282 22.1334H39.0605V33.2124H41.1186V25.8368L46.9176 33.2124H48.5865Z" fill="#FEDF00"/>
    <path d="M57.0675 22.1334H54.8219L49.4249 33.9288L46.7148 39.851H48.9604L51.7636 33.9288L53.0905 31.1244H58.7964L59.7163 33.2137H61.9619L57.0663 22.1334H57.0675ZM53.9186 29.1775L55.946 24.4611L57.9734 29.1775H53.9199H53.9186Z" fill="#FEDF00"/>
    <path d="M52.3977 33.9288L49.74 39.8511H59.0464C60.6566 39.8511 61.9632 38.5259 61.9632 36.8899C61.9632 35.2552 60.6579 33.9288 59.0464 33.9288H52.3977Z" fill="#24B098"/>
    <path d="M67.249 22.1334H66.3521V39.851H67.249V22.1334Z" fill="#FEDF00"/>
    <path d="M108.452 24.4819H70.3025V37.4352H108.452V24.4819Z" fill="#24B098"/>
    <path d="M155.533 25.2591H107.942V36.6581H155.533V25.2591Z" stroke="#24B098" stroke-dasharray="2 2"/>
    <path d="M75.7468 35.7513H72.1765V26.3307H75.7105C76.665 26.3307 77.4896 26.5193 78.1845 26.8965C78.8822 27.2706 79.4198 27.8104 79.7975 28.5157C80.1781 29.2179 80.3683 30.0597 80.3683 31.041C80.3683 32.0223 80.1795 32.8657 79.802 33.571C79.4244 34.2732 78.8898 34.813 78.198 35.1902C77.5064 35.5643 76.6893 35.7513 75.7468 35.7513ZM74.6957 33.5802H75.6562C76.1154 33.5802 76.5066 33.5051 76.8297 33.3548C77.1559 33.2046 77.4036 32.9454 77.5728 32.5774C77.7449 32.2094 77.8311 31.6973 77.8311 31.041C77.8311 30.3847 77.7434 29.8726 77.5682 29.5047C77.3961 29.1367 77.1423 28.8775 76.807 28.7272C76.4748 28.577 76.067 28.5018 75.5837 28.5018H74.6957V33.5802ZM83.4226 35.7513H80.704L83.7668 26.3307H87.2104L90.2733 35.7513H87.5547L85.5249 28.925H85.4524L83.4226 35.7513ZM82.915 32.0346H88.0259V33.9482H82.915V32.0346ZM95.8716 29.2746C95.8474 28.968 95.7342 28.7288 95.5318 28.557C95.3324 28.3853 95.0289 28.2995 94.6211 28.2995C94.3613 28.2995 94.1484 28.3316 93.9822 28.396C93.8191 28.4574 93.6982 28.5417 93.6198 28.649C93.5412 28.7564 93.5005 28.879 93.4974 29.017C93.4914 29.1305 93.5109 29.2332 93.5564 29.3253C93.6046 29.4142 93.6801 29.4955 93.7828 29.5691C93.8855 29.6395 94.017 29.7039 94.1771 29.7622C94.3371 29.8205 94.5274 29.8726 94.7479 29.9187L95.5091 30.0842C96.0227 30.1946 96.4621 30.3403 96.8276 30.5213C97.1931 30.7021 97.4921 30.9153 97.7247 31.1607C97.9573 31.4029 98.1281 31.6758 98.2368 31.9794C98.3485 32.2829 98.4059 32.6142 98.4089 32.973C98.4059 33.5924 98.2533 34.1169 97.9513 34.5461C97.6492 34.9754 97.2173 35.3021 96.6554 35.5259C96.0967 35.7498 95.4245 35.8617 94.6392 35.8617C93.8327 35.8617 93.1289 35.7406 92.5277 35.4983C91.9297 35.2561 91.4645 34.8835 91.1323 34.3806C90.8029 33.8745 90.6368 33.2275 90.6339 32.4394H93.0262C93.0413 32.7276 93.1122 32.9699 93.2392 33.1662C93.366 33.3625 93.5442 33.5112 93.7738 33.6123C94.0064 33.7135 94.2827 33.7642 94.603 33.7642C94.8718 33.7642 95.0968 33.7305 95.2781 33.663C95.4592 33.5955 95.5968 33.502 95.6903 33.3824C95.784 33.2627 95.8323 33.1263 95.8354 32.973C95.8323 32.8288 95.7855 32.7031 95.6949 32.5958C95.6072 32.4854 95.4623 32.3872 95.2599 32.3013C95.0576 32.2125 94.7842 32.1297 94.4398 32.053L93.5155 31.8506C92.694 31.6697 92.0459 31.3676 91.5718 30.9445C91.1005 30.5182 90.8665 29.9371 90.8694 29.2011C90.8665 28.603 91.0236 28.0802 91.3406 27.6324C91.6609 27.1816 92.1034 26.8306 92.6682 26.579C93.2361 26.3276 93.8871 26.2018 94.6211 26.2018C95.3702 26.2018 96.0181 26.3292 96.5648 26.5837C97.1115 26.8382 97.533 27.1971 97.829 27.6601C98.1281 28.1201 98.279 28.6582 98.2821 29.2746H95.8716ZM99.431 35.7513V26.3307H101.95V30.0107H105.285V26.3307H107.804V35.7513H105.285V32.0714H101.95V35.7513H99.431ZM109.064 35.7513V26.3307H113.088C113.794 26.3307 114.388 26.4272 114.868 26.6205C115.351 26.8136 115.716 27.0866 115.96 27.4393C116.208 27.792 116.332 28.2074 116.332 28.6859C116.332 29.0324 116.256 29.3482 116.105 29.6335C115.957 29.9187 115.749 30.1578 115.48 30.3511C115.211 30.5411 114.897 30.673 114.537 30.7467V30.8386C114.936 30.8539 115.299 30.9566 115.625 31.1468C115.951 31.3338 116.211 31.593 116.404 31.9243C116.597 32.2524 116.694 32.6388 116.694 33.0833C116.694 33.5986 116.561 34.057 116.295 34.4587C116.033 34.8605 115.658 35.1763 115.172 35.4064C114.685 35.6363 114.105 35.7513 113.432 35.7513H109.064ZM111.583 33.709H112.761C113.184 33.709 113.501 33.6292 113.713 33.4697C113.924 33.3073 114.03 33.068 114.03 32.7522C114.03 32.5314 113.98 32.3443 113.88 32.191C113.781 32.0376 113.639 31.9211 113.454 31.8414C113.273 31.7617 113.054 31.7218 112.798 31.7218H111.583V33.709ZM111.583 30.1394H112.616C112.837 30.1394 113.032 30.1042 113.201 30.0336C113.37 29.9631 113.501 29.8619 113.595 29.7301C113.692 29.5951 113.74 29.431 113.74 29.2379C113.74 28.9465 113.637 28.7241 113.432 28.5709C113.226 28.4144 112.967 28.3363 112.653 28.3363H111.583V30.1394ZM126.64 31.041C126.64 32.0898 126.439 32.9745 126.037 33.6951C125.636 34.4127 125.093 34.957 124.411 35.3281C123.728 35.6961 122.967 35.8801 122.127 35.8801C121.281 35.8801 120.517 35.6946 119.834 35.3235C119.155 34.9494 118.614 34.4035 118.212 33.6859C117.814 32.9653 117.614 32.0837 117.614 31.041C117.614 29.9923 117.814 29.1091 118.212 28.3915C118.614 27.6708 119.155 27.1265 119.834 26.7584C120.517 26.3875 121.281 26.2018 122.127 26.2018C122.967 26.2018 123.728 26.3875 124.411 26.7584C125.093 27.1265 125.636 27.6708 126.037 28.3915C126.439 29.1091 126.64 29.9923 126.64 31.041ZM124.048 31.041C124.048 30.4767 123.974 30.0015 123.826 29.6151C123.681 29.2255 123.465 28.9311 123.178 28.7319C122.894 28.5294 122.544 28.4283 122.127 28.4283C121.71 28.4283 121.358 28.5294 121.071 28.7319C120.787 28.9311 120.571 29.2255 120.423 29.6151C120.278 30.0015 120.206 30.4767 120.206 31.041C120.206 31.6052 120.278 32.0822 120.423 32.4715C120.571 32.8579 120.787 33.1524 121.071 33.3548C121.358 33.554 121.71 33.6538 122.127 33.6538C122.544 33.6538 122.894 33.554 123.178 33.3548C123.465 33.1524 123.681 32.8579 123.826 32.4715C123.974 32.0822 124.048 31.6052 124.048 31.041ZM129.695 35.7513H126.976L130.038 26.3307H133.481L136.545 35.7513H133.826L131.796 28.925H131.723L129.695 35.7513ZM129.187 32.0346H134.298V33.9482H129.187V32.0346ZM137.502 35.7513V26.3307H141.508C142.196 26.3307 142.799 26.4579 143.315 26.7125C143.832 26.967 144.234 27.3334 144.521 27.8118C144.808 28.2903 144.951 28.8638 144.951 29.5323C144.951 30.2069 144.803 30.7758 144.507 31.2388C144.214 31.7018 143.802 32.0515 143.27 32.2876C142.742 32.5237 142.124 32.6417 141.418 32.6417H139.025V30.6546H140.91C141.206 30.6546 141.458 30.6178 141.666 30.5442C141.878 30.4675 142.039 30.3464 142.151 30.1809C142.266 30.0152 142.323 29.799 142.323 29.5323C142.323 29.2623 142.266 29.0432 142.151 28.8745C142.039 28.7028 141.878 28.577 141.666 28.4973C141.458 28.4144 141.206 28.3731 140.91 28.3731H140.022V35.7513H137.502ZM142.94 31.4274L145.259 35.7513H142.523L140.257 31.4274H142.94ZM149.659 35.7513H146.089V26.3307H149.623C150.577 26.3307 151.402 26.5193 152.097 26.8965C152.795 27.2706 153.332 27.8104 153.71 28.5157C154.09 29.2179 154.281 30.0597 154.281 31.041C154.281 32.0223 154.092 32.8657 153.715 33.571C153.337 34.2732 152.803 34.813 152.111 35.1902C151.418 35.5643 150.602 35.7513 149.659 35.7513ZM148.607 33.5802H149.568C150.027 33.5802 150.419 33.5051 150.742 33.3548C151.069 33.2046 151.316 32.9454 151.485 32.5774C151.657 32.2094 151.744 31.6973 151.744 31.041C151.744 30.3847 151.655 29.8726 151.481 29.5047C151.308 29.1367 151.055 28.8775 150.719 28.7272C150.387 28.577 149.979 28.5018 149.497 28.5018H148.607V33.5802Z" fill="white"/>
  </g>
  <defs>
    <clipPath id="clip0_1353_357">
      <rect width="155.66" height="50" fill="white"/>
    </clipPath>
  </defs>
</svg>