<svg xmlns="http://www.w3.org/2000/svg" width="20" height="20" viewBox="0 0 20 20" fill="none">
  <g clip-path="url(#clip0_1_40418)">
    <path d="M16.2491 10.4766L9.99911 16.6666L3.74911 10.4766C3.33687 10.0754 3.01215 9.59325 2.7954 9.06043C2.57866 8.52762 2.47458 7.9557 2.48973 7.38068C2.50487 6.80567 2.63891 6.24002 2.88341 5.71935C3.1279 5.19868 3.47756 4.73428 3.91035 4.35539C4.34314 3.97649 4.8497 3.69131 5.39812 3.5178C5.94654 3.3443 6.52495 3.28622 7.09692 3.34724C7.66889 3.40825 8.22203 3.58703 8.72151 3.87233C9.22099 4.15762 9.65599 4.54324 9.99911 5.0049C10.3437 4.54659 10.7792 4.16434 11.2784 3.88207C11.7775 3.59981 12.3295 3.42361 12.8999 3.3645C13.4703 3.3054 14.0467 3.36465 14.5931 3.53856C15.1395 3.71247 15.6441 3.9973 16.0754 4.37521C16.5067 4.75311 16.8553 5.21597 17.0995 5.73481C17.3436 6.25365 17.4781 6.81731 17.4944 7.39049C17.5107 7.96368 17.4085 8.53406 17.1942 9.06594C16.98 9.59783 16.6582 10.0798 16.2491 10.4816" stroke="black" stroke-opacity="0.5" stroke-width="1.5" stroke-linecap="round" stroke-linejoin="round"/>
  </g>
  <defs>
    <clipPath id="clip0_1_40418">
      <rect width="20" height="20" fill="white"/>
    </clipPath>
  </defs>
</svg>