<svg xmlns="http://www.w3.org/2000/svg" width="20" height="20" viewBox="0 0 20 20" fill="none">
  <g clip-path="url(#clip0_1_15001)">
    <path d="M5.83398 5.8335H5.00065C4.55862 5.8335 4.1347 6.00909 3.82214 6.32165C3.50958 6.63421 3.33398 7.05814 3.33398 7.50016V15.0002C3.33398 15.4422 3.50958 15.8661 3.82214 16.1787C4.1347 16.4912 4.55862 16.6668 5.00065 16.6668H12.5007C12.9427 16.6668 13.3666 16.4912 13.6792 16.1787C13.9917 15.8661 14.1673 15.4422 14.1673 15.0002V14.1668" stroke="black" stroke-opacity="0.7" stroke-linecap="round" stroke-linejoin="round"/>
    <path d="M16.9875 5.48759C17.3157 5.15938 17.5001 4.71424 17.5001 4.25009C17.5001 3.78594 17.3157 3.34079 16.9875 3.01259C16.6593 2.68438 16.2142 2.5 15.75 2.5C15.2858 2.5 14.8407 2.68438 14.5125 3.01259L7.5 10.0001V12.5001H10L16.9875 5.48759Z" stroke="black" stroke-opacity="0.7" stroke-linecap="round" stroke-linejoin="round"/>
    <path d="M13.334 4.1665L15.834 6.6665" stroke="black" stroke-opacity="0.7" stroke-linecap="round" stroke-linejoin="round"/>
  </g>
  <defs>
    <clipPath id="clip0_1_15001">
      <rect width="20" height="20" fill="white"/>
    </clipPath>
  </defs>
</svg>