<svg xmlns="http://www.w3.org/2000/svg" width="20" height="20" viewBox="0 0 20 20" fill="none">
  <g clip-path="url(#clip0_1_40443)">
    <path d="M3.33398 5.8335H16.6673" stroke="black" stroke-opacity="0.5" stroke-linecap="round" stroke-linejoin="round"/>
    <path d="M8.33398 9.1665V14.1665" stroke="black" stroke-opacity="0.5" stroke-linecap="round" stroke-linejoin="round"/>
    <path d="M11.666 9.1665V14.1665" stroke="black" stroke-opacity="0.5" stroke-linecap="round" stroke-linejoin="round"/>
    <path d="M4.16602 5.8335L4.99935 15.8335C4.99935 16.2755 5.17494 16.6994 5.4875 17.012C5.80007 17.3246 6.22399 17.5002 6.66602 17.5002H13.3327C13.7747 17.5002 14.1986 17.3246 14.5112 17.012C14.8238 16.6994 14.9994 16.2755 14.9994 15.8335L15.8327 5.8335" stroke="black" stroke-opacity="0.5" stroke-linecap="round" stroke-linejoin="round"/>
    <path d="M7.5 5.83333V3.33333C7.5 3.11232 7.5878 2.90036 7.74408 2.74408C7.90036 2.5878 8.11232 2.5 8.33333 2.5H11.6667C11.8877 2.5 12.0996 2.5878 12.2559 2.74408C12.4122 2.90036 12.5 3.11232 12.5 3.33333V5.83333" stroke="black" stroke-opacity="0.5" stroke-linecap="round" stroke-linejoin="round"/>
  </g>
  <defs>
    <clipPath id="clip0_1_40443">
      <rect width="20" height="20" fill="white"/>
    </clipPath>
  </defs>
</svg>