<svg xmlns="http://www.w3.org/2000/svg" width="100" height="100" viewBox="0 0 100 100" fill="none">
  <g clip-path="url(#clip0_1062_441)">
    <path d="M49.9999 12.5C59.7325 21.1107 72.4352 25.594 85.4165 25C87.3065 31.4292 87.8848 38.1728 87.1171 44.8299C86.3493 51.4871 84.2512 57.922 80.9474 63.7522C77.6436 69.5825 73.2015 74.6891 67.8851 78.7687C62.5687 82.8482 56.4865 85.8175 49.9999 87.5C43.5133 85.8175 37.431 82.8482 32.1146 78.7687C26.7983 74.6891 22.3562 69.5825 19.0524 63.7522C15.7486 57.922 13.6504 51.4871 12.8827 44.8299C12.1149 38.1728 12.6932 31.4292 14.5832 25C27.5646 25.594 40.2672 21.1107 49.9999 12.5Z" stroke="#CC9300" stroke-width="5" stroke-linecap="round" stroke-linejoin="round"/>
    <path d="M45.8333 45.8334C45.8333 46.9385 46.2722 47.9983 47.0536 48.7797C47.835 49.5611 48.8949 50.0001 49.9999 50.0001C51.105 50.0001 52.1648 49.5611 52.9462 48.7797C53.7276 47.9983 54.1666 46.9385 54.1666 45.8334C54.1666 44.7283 53.7276 43.6685 52.9462 42.8871C52.1648 42.1057 51.105 41.6667 49.9999 41.6667C48.8949 41.6667 47.835 42.1057 47.0536 42.8871C46.2722 43.6685 45.8333 44.7283 45.8333 45.8334Z" stroke="#CC9300" stroke-width="5" stroke-linecap="round" stroke-linejoin="round"/>
    <path d="M50 50V60.4167" stroke="#CC9300" stroke-width="5" stroke-linecap="round" stroke-linejoin="round"/>
  </g>
  <defs>
    <clipPath id="clip0_1062_441">
      <rect width="100" height="100" fill="white"/>
    </clipPath>
  </defs>
</svg>