<svg xmlns="http://www.w3.org/2000/svg" width="24" height="29" viewBox="0 0 24 29" fill="none">
  <path d="M19.875 12.2696C20.575 12.6676 21.005 13.4126 21 14.2176V21.5016C21 22.3106 20.557 23.0566 19.842 23.4496L13.092 27.7196C12.7574 27.9033 12.3818 27.9996 12 27.9996C11.6182 27.9996 11.2426 27.9033 10.908 27.7196L4.158 23.4496C3.80817 23.2584 3.51612 22.9768 3.31241 22.6341C3.1087 22.2914 3.0008 21.9003 3 21.5016V14.2166C3 13.4076 3.443 12.6626 4.158 12.2696L10.908 8.28959C11.2525 8.09963 11.6396 8 12.033 8C12.4264 8 12.8135 8.09963 13.158 8.28959L19.908 12.2696H19.875Z" stroke="black" stroke-opacity="0.5" stroke-linecap="round" stroke-linejoin="round"/>
  <path d="M12 14V18" stroke="black" stroke-opacity="0.5" stroke-linecap="round" stroke-linejoin="round"/>
  <path d="M12 22H12.01" stroke="black" stroke-opacity="0.5" stroke-linecap="round" stroke-linejoin="round"/>
</svg>