<svg width="40" height="40" viewBox="0 0 40 40" fill="none" xmlns="http://www.w3.org/2000/svg">
<g id="Frame" clip-path="url(#clip0_1252_145)">
<path id="Vector" d="M25 13.3333H25.0167" stroke="white" stroke-width="2" stroke-linecap="round" stroke-linejoin="round"/>
<path id="Vector_2" d="M20.8333 35H10C8.67392 35 7.40215 34.4732 6.46447 33.5355C5.52678 32.5979 5 31.3261 5 30V10C5 8.67392 5.52678 7.40215 6.46447 6.46447C7.40215 5.52678 8.67392 5 10 5H30C31.3261 5 32.5979 5.52678 33.5355 6.46447C34.4732 7.40215 35 8.67392 35 10V20.8333" stroke="white" stroke-width="2" stroke-linecap="round" stroke-linejoin="round"/>
<path id="Vector_3" d="M5 26.6666L13.3333 18.3333C14.88 16.845 16.7867 16.845 18.3333 18.3333L24.1667 24.1666" stroke="white" stroke-width="2" stroke-linecap="round" stroke-linejoin="round"/>
<path id="Vector_4" d="M23.3333 23.3333L24.9999 21.6667C26.1316 20.5783 27.4549 20.285 28.6899 20.79" stroke="white" stroke-width="2" stroke-linecap="round" stroke-linejoin="round"/>
<path id="Vector_5" d="M31.6667 36.6667V26.6667" stroke="white" stroke-width="2" stroke-linecap="round" stroke-linejoin="round"/>
<path id="Vector_6" d="M36.6667 31.6667L31.6667 26.6667L26.6667 31.6667" stroke="white" stroke-width="2" stroke-linecap="round" stroke-linejoin="round"/>
</g>
<defs>
<clipPath id="clip0_1252_145">
<rect width="40" height="40" fill="white"/>
</clipPath>
</defs>
</svg>
