<svg width="18" height="18" viewBox="0 0 18 18" fill="none" xmlns="http://www.w3.org/2000/svg">
<path id="Vector" d="M8.99986 0C9.69995 4.2554e-05 10.3761 0.255063 10.9018 0.717383L11.0404 0.847898L11.6687 1.47617C11.8411 1.64747 12.0663 1.75561 12.3077 1.78311L12.4293 1.79031H13.3294C14.0649 1.79027 14.7727 2.07165 15.3074 2.57676C15.8421 3.08187 16.1634 3.77243 16.2052 4.50682L16.2097 4.67064V5.57074C16.2097 5.81377 16.2925 6.0505 16.4419 6.23952L16.5229 6.32953L17.1503 6.9578C17.6703 7.47486 17.9735 8.1708 17.9981 8.90371C18.0227 9.63662 17.7668 10.3513 17.2826 10.9021L17.1521 11.0407L16.5238 11.6689C16.3525 11.8414 16.2444 12.0665 16.2169 12.308L16.2097 12.4295V13.3296C16.2097 14.0652 15.9283 14.7729 15.4232 15.3077C14.9181 15.8424 14.2276 16.1636 13.4932 16.2055L13.3294 16.21H12.4293C12.1866 16.2101 11.951 16.2919 11.7605 16.4422L11.6705 16.5232L11.0422 17.1506C10.5251 17.6706 9.8292 17.9738 9.09629 17.9984C8.36338 18.023 7.64869 17.7671 7.09794 17.2829L6.95933 17.1524L6.33105 16.5241C6.15863 16.3528 5.93347 16.2447 5.69198 16.2172L5.57047 16.21H4.67036C3.93478 16.21 3.22706 15.9286 2.69232 15.4235C2.15759 14.9184 1.83637 14.2278 1.79453 13.4935L1.79003 13.3296V12.4295C1.78995 12.1868 1.70815 11.9513 1.5578 11.7608L1.47679 11.6707L0.849422 11.0425C0.329415 10.5254 0.0262073 9.82948 0.00162086 9.09657C-0.0229655 8.36366 0.232921 7.64897 0.717107 7.09822L0.847622 6.9596L1.47589 6.33133C1.64719 6.15891 1.75533 5.93375 1.78283 5.69226L1.79003 5.57074V4.67064L1.79453 4.50682C1.83472 3.80064 2.13335 3.13394 2.63351 2.63378C3.13366 2.13363 3.80036 1.835 4.50654 1.79481L4.67036 1.79031H5.57047C5.81315 1.79023 6.04874 1.70842 6.23924 1.55808L6.32925 1.47707L6.95753 0.849698C7.22516 0.580467 7.54338 0.366797 7.89387 0.220975C8.24437 0.0751527 8.62024 5.49748e-05 8.99986 0ZM12.3275 6.55456C12.1588 6.38581 11.9298 6.29102 11.6912 6.29102C11.4525 6.29102 11.2236 6.38581 11.0548 6.55456L8.09076 9.5177L6.92692 8.35476L6.84231 8.28006C6.6614 8.14017 6.43402 8.07439 6.20637 8.09608C5.97871 8.11776 5.76784 8.22529 5.6166 8.39682C5.46535 8.56835 5.38506 8.79101 5.39204 9.0196C5.39902 9.24818 5.49274 9.46553 5.65418 9.62751L7.45438 11.4277L7.53899 11.5024C7.71218 11.6368 7.92843 11.7033 8.14718 11.6895C8.36593 11.6758 8.57214 11.5827 8.72713 11.4277L12.3275 7.8273L12.4023 7.74269C12.5366 7.56951 12.6031 7.35326 12.5894 7.13451C12.5756 6.91576 12.4825 6.70955 12.3275 6.55456Z" fill="#0EAA00"/>
</svg>
