<svg xmlns="http://www.w3.org/2000/svg" width="100" height="100" viewBox="0 0 100 100" fill="none">
  <g clip-path="url(#clip0_1062_425)">
    <path d="M50 6.95837C53.9791 6.95837 57.6875 8.90421 59.9583 12.1542L60.3958 12.8209L94.2041 69.2709C95.2316 71.0504 95.7906 73.0615 95.8288 75.116C95.8671 77.1704 95.3833 79.201 94.4228 81.0174C93.4623 82.834 92.0565 84.377 90.337 85.502C88.6176 86.6271 86.6407 87.2973 84.5916 87.45L83.7791 87.4834H16.175C14.1237 87.4603 12.1118 86.9179 10.3269 85.9067C8.54207 84.8956 7.04249 83.4488 5.96816 81.7012C4.89384 79.9537 4.2798 77.9624 4.18335 75.9133C4.0869 73.8642 4.5112 71.8241 5.41663 69.9834L5.82913 69.2125L39.6208 12.8042C40.7027 11.0201 42.2262 9.54491 44.0442 8.52095C45.8622 7.497 47.9134 6.95883 50 6.95837ZM50.0416 62.5L49.5125 62.5292C48.4998 62.6497 47.5664 63.1373 46.8892 63.8999C46.212 64.6624 45.8379 65.6469 45.8379 66.6667C45.8379 67.6865 46.212 68.671 46.8892 69.4335C47.5664 70.1961 48.4998 70.6837 49.5125 70.8042L50 70.8334L50.5291 70.8042C51.5418 70.6837 52.4752 70.1961 53.1524 69.4335C53.8296 68.671 54.2036 67.6865 54.2036 66.6667C54.2036 65.6469 53.8296 64.6624 53.1524 63.8999C52.4752 63.1373 51.5418 62.6497 50.5291 62.5292L50.0416 62.5ZM50 33.3334C48.9794 33.3335 47.9944 33.7082 47.2317 34.3863C46.4691 35.0645 45.9819 35.999 45.8625 37.0125L45.8333 37.5V54.1667L45.8625 54.6542C45.9829 55.6669 46.4706 56.6003 47.2331 57.2775C47.9957 57.9547 48.9801 58.3287 50 58.3287C51.0198 58.3287 52.0042 57.9547 52.7668 57.2775C53.5293 56.6003 54.017 55.6669 54.1375 54.6542L54.1666 54.1667V37.5L54.1375 37.0125C54.0181 35.999 53.5308 35.0645 52.7682 34.3863C52.0055 33.7082 51.0205 33.3335 50 33.3334Z" fill="#FF0000"/>
  </g>
  <defs>
    <clipPath id="clip0_1062_425">
      <rect width="100" height="100" fill="white"/>
    </clipPath>
  </defs>
</svg>