<svg width="24" height="24" viewBox="0 0 24 24" fill="none" xmlns="http://www.w3.org/2000/svg">
<g id="Frame" clip-path="url(#clip0_272_6185)">
<path id="Vector" d="M19.875 6.26999C20.575 6.66799 21.005 7.41299 21 8.21799V15.502C21 16.311 20.557 17.057 19.842 17.45L13.092 21.72C12.7574 21.9037 12.3818 22 12 22C11.6182 22 11.2426 21.9037 10.908 21.72L4.158 17.45C3.80817 17.2588 3.51612 16.9771 3.31241 16.6345C3.1087 16.2918 3.0008 15.9006 3 15.502V8.21699C3 7.40799 3.443 6.66299 4.158 6.26999L10.908 2.28999C11.2525 2.10002 11.6396 2.0004 12.033 2.0004C12.4264 2.0004 12.8135 2.10002 13.158 2.28999L19.908 6.26999H19.875Z" stroke="#FF0000" stroke-opacity="0.7" stroke-linecap="round" stroke-linejoin="round"/>
<path id="Vector_2" d="M12 8V12" stroke="#FF0000" stroke-opacity="0.7" stroke-linecap="round" stroke-linejoin="round"/>
<path id="Vector_3" d="M12 16H12.01" stroke="#FF0000" stroke-opacity="0.7" stroke-linecap="round" stroke-linejoin="round"/>
</g>
<defs>
<clipPath id="clip0_272_6185">
<rect width="24" height="24" fill="white"/>
</clipPath>
</defs>
</svg>
