<svg xmlns="http://www.w3.org/2000/svg" width="81" height="81" viewBox="0 0 81 81" fill="none">
    <g clip-path="url(#clip0_272_20962)">
    <path d="M10.125 70.875L15.6938 58.05C11.4334 52.0022 9.5265 44.6075 10.331 37.2536C11.1356 29.8997 14.5962 23.0922 20.0634 18.1086C25.5306 13.125 32.6287 10.308 40.0254 10.1861C47.4222 10.0642 54.6092 12.6459 60.2376 17.4466C65.8661 22.2474 69.5491 28.9372 70.5955 36.2606C71.6419 43.5839 69.9797 51.0375 65.9209 57.2223C61.862 63.4072 55.6856 67.8983 48.5507 69.8527C41.4158 71.8072 33.8129 71.0906 27.1688 67.8375L10.125 70.875Z" stroke="#009A0F" stroke-width="4" stroke-linecap="round" stroke-linejoin="round"/>
    <path d="M30.375 33.75C30.375 34.1976 30.5528 34.6268 30.8693 34.9432C31.1857 35.2597 31.6149 35.4375 32.0625 35.4375C32.5101 35.4375 32.9393 35.2597 33.2557 34.9432C33.5722 34.6268 33.75 34.1976 33.75 33.75V30.375C33.75 29.9274 33.5722 29.4982 33.2557 29.1818C32.9393 28.8653 32.5101 28.6875 32.0625 28.6875C31.6149 28.6875 31.1857 28.8653 30.8693 29.1818C30.5528 29.4982 30.375 29.9274 30.375 30.375V33.75ZM30.375 33.75C30.375 38.2255 32.1529 42.5178 35.3176 45.6824C38.4822 48.8471 42.7745 50.625 47.25 50.625M47.25 50.625H50.625C51.0726 50.625 51.5018 50.4472 51.8182 50.1307C52.1347 49.8143 52.3125 49.3851 52.3125 48.9375C52.3125 48.4899 52.1347 48.0607 51.8182 47.7443C51.5018 47.4278 51.0726 47.25 50.625 47.25H47.25C46.8024 47.25 46.3732 47.4278 46.0568 47.7443C45.7403 48.0607 45.5625 48.4899 45.5625 48.9375C45.5625 49.3851 45.7403 49.8143 46.0568 50.1307C46.3732 50.4472 46.8024 50.625 47.25 50.625Z" stroke="#009A0F" stroke-width="4" stroke-linecap="round" stroke-linejoin="round"/>
    </g>
    <defs>
    <clipPath id="clip0_272_20962">
    <rect width="81" height="81" fill="white"/>
    </clipPath>
    </defs>
</svg>